<svg xmlns="http://www.w3.org/2000/svg" width="126" height="36.247" viewBox="0 0 126 36.247">
  <g id="big-logo" transform="translate(-111 -639)">
    <g id="logo" transform="translate(1 255.554)">
      <g id="Group_3010" data-name="Group 3010" transform="translate(110 379.694)">
        <g id="Group_4" data-name="Group 4" transform="translate(0 0)">
          <g id="Group_1" data-name="Group 1" transform="translate(0.227 4)">
            <path id="Path_1" data-name="Path 1" d="M269.911,490.767c.808,0,1.6,0,2.4.006,0,.053,0,.09,0,.128-.013.541-.026,1.082-.041,1.623a6.292,6.292,0,0,1-.033.644,2.148,2.148,0,0,1-.81,1.409,3.766,3.766,0,0,1-.892.53.324.324,0,0,1-.047.013l-.565-.843.11-.054a2.358,2.358,0,0,0,.752-.531,1.188,1.188,0,0,0,.294-.576c.01-.05.012-.1.019-.167-.14-.01-.271,0-.4,0l-.406,0h-.409C269.888,492.225,269.91,491.505,269.911,490.767Z" transform="translate(-256.212 -490.612)" fill="#e91818"/>
            <path id="Path_2" data-name="Path 2" d="M410.283,525.164a2.678,2.678,0,0,1-.3.037c-.6,0-1.2,0-1.859,0-.036-3,.017-5.974-.032-8.986l1.84-.476c.043.657.084,1.273.129,1.953a1.847,1.847,0,0,0,.239-.18,4.53,4.53,0,0,1,3.063-1.456,5.276,5.276,0,0,1,2.176.191,3.321,3.321,0,0,1,1.9,1.411,1.818,1.818,0,0,0,.126.157,2.916,2.916,0,0,0,.228-.2,4.793,4.793,0,0,1,3.251-1.558,5.639,5.639,0,0,1,1.964.137,3.464,3.464,0,0,1,2.757,3.378c.016.322.013.645.013.968q0,2.068,0,4.137c0,.158,0,.315,0,.5h-2.151c-.007-.158-.019-.313-.02-.467,0-1.526,0-3.051-.006-4.577a4.448,4.448,0,0,0-.1-.958,2.169,2.169,0,0,0-1.8-1.76,3.321,3.321,0,0,0-2.612.459,2.2,2.2,0,0,0-1.052,1.96c.015,1.614,0,3.227,0,4.841v.5H415.9c-.009-.156-.025-.309-.025-.463q0-2.266,0-4.533c0-.235,0-.47-.012-.7a2.152,2.152,0,0,0-1.551-1.983,3.22,3.22,0,0,0-3.306.742,2.193,2.193,0,0,0-.722,1.685c.013,1.584,0,3.169,0,4.753Z" transform="translate(-378.145 -512.645)" fill="#2b2a28"/>
            <path id="Path_3" data-name="Path 3" d="M648.616,524.922h-2.234c-.01-.185-.026-.355-.026-.524,0-1.511.006-3.022-.007-4.533a5.6,5.6,0,0,0-.121-1.176,2.163,2.163,0,0,0-1.543-1.658,4.024,4.024,0,0,0-3.161.242,2.478,2.478,0,0,0-1.473,2.4c.028,1.569.007,3.139.007,4.709v.545c-.76.024-1.494.03-2.268-.008v-8.893l1.875-.581c.062.6.119,1.158.18,1.745a.808.808,0,0,0,.161-.094,4.857,4.857,0,0,1,3.164-1.557,6.4,6.4,0,0,1,2.66.166,3.575,3.575,0,0,1,2.81,3.593c.04,1.8.008,3.609.007,5.413A1.736,1.736,0,0,1,648.616,524.922Z" transform="translate(-580.787 -512.383)" fill="#2b2a28"/>
            <path id="Path_4" data-name="Path 4" d="M764.482,523.027h-8.674a5.037,5.037,0,0,0,.055.665,2.738,2.738,0,0,0,1.375,1.846,4.848,4.848,0,0,0,2.4.627,17.369,17.369,0,0,0,1.932-.052c.624-.062,1.239-.211,1.92-.333l.358,1.079c-.265.076-.5.158-.732.208a14.138,14.138,0,0,1-5.064.211,6.777,6.777,0,0,1-1.923-.595,4.3,4.3,0,0,1-1.233-6.918,4.927,4.927,0,0,1,1.851-1.232,7.39,7.39,0,0,1,4.829-.193,3.948,3.948,0,0,1,2.925,3.193A3.7,3.7,0,0,1,764.482,523.027Zm-8.669-1.206a64.847,64.847,0,0,0,6.627-.011,4.513,4.513,0,0,0-.039-.466,2.4,2.4,0,0,0-1.69-1.958,4.32,4.32,0,0,0-2.766-.01,3.086,3.086,0,0,0-2.007,1.951A4.455,4.455,0,0,0,755.813,521.821Z" transform="translate(-683.014 -514.659)" fill="#2b2a28"/>
            <path id="Path_5" data-name="Path 5" d="M197.954,500.407v2.585h3.182v1.184h-3.128a3.438,3.438,0,0,0-.047.382q0,2.33,0,4.661c0,.029,0,.059,0,.088a1.419,1.419,0,0,0,1.529,1.549c.379.012.759-.037,1.139-.057.087,0,.174,0,.3,0l.1,1.1a1.684,1.684,0,0,1-.281.106,7,7,0,0,1-3.006,0,2.348,2.348,0,0,1-1.944-2.3c-.018-.2-.022-.41-.022-.615q0-2.176,0-4.353v-.516c-.639-.081-1.253,0-1.891-.054v-1.139c.607-.113,1.238.02,1.884-.082v-2.118Z" transform="translate(-189.17 -499.117)" fill="#2b2a28"/>
            <path id="Path_6" data-name="Path 6" d="M295.784,521.025l-.521,1.08c-.549-.135-1.053-.291-1.568-.377a4.308,4.308,0,0,0-1.918.042,2.3,2.3,0,0,0-.744.358.918.918,0,0,0,.031,1.556,4.288,4.288,0,0,0,.987.469c.566.2,1.156.332,1.716.543a7.317,7.317,0,0,1,1.424.675,2.061,2.061,0,0,1,.032,3.577,4.987,4.987,0,0,1-2.3.8,10.19,10.19,0,0,1-4.218-.328c-.126-.037-.249-.085-.372-.133a1.011,1.011,0,0,1-.149-.1l.49-1.089c.755.177,1.459.374,2.175.5a4.42,4.42,0,0,0,2.131-.114,2.314,2.314,0,0,0,.63-.3,1.068,1.068,0,0,0,.03-1.789,2.861,2.861,0,0,0-.728-.4c-.451-.17-.923-.285-1.378-.447-.537-.191-1.078-.379-1.592-.622a3.367,3.367,0,0,1-.856-.605,1.7,1.7,0,0,1-.285-2.24,2.782,2.782,0,0,1,1.092-.994,5.233,5.233,0,0,1,2.1-.595,8.328,8.328,0,0,1,3.468.393C295.553,520.919,295.644,520.964,295.784,521.025Z" transform="translate(-272.351 -516.805)" fill="#2b2a28"/>
            <path id="Path_7" data-name="Path 7" d="M587.111,516.408l2.142-.559v9.42h-2.142Z" transform="translate(-536.076 -512.741)" fill="#2b2a28"/>
            <path id="Path_8" data-name="Path 8" d="M157.747,519.031l2.151-.556v9.316h-2.151Z" transform="translate(-157.278 -515.057)" fill="#2b2a28"/>
            <path id="Path_9" data-name="Path 9" d="M584.483,491.516a1.615,1.615,0,0,1-.989-.3.869.869,0,0,1-.011-1.45,1.919,1.919,0,0,1,2.064-.03.883.883,0,0,1-.058,1.528A1.866,1.866,0,0,1,584.483,491.516Z" transform="translate(-532.536 -489.454)" fill="#2b2a28"/>
            <path id="Path_10" data-name="Path 10" d="M155.168,491.579a2.293,2.293,0,0,1-.975-.332.874.874,0,0,1-.03-1.481,1.928,1.928,0,0,1,2.035-.032.883.883,0,0,1-.08,1.551A5.372,5.372,0,0,1,155.168,491.579Z" transform="translate(-153.768 -489.458)" fill="#2b2a28"/>
          </g>
          <g id="Group_2" data-name="Group 2" transform="translate(0 22.79)">
            <path id="Path_11" data-name="Path 11" d="M434.283,692.935c-.063-.261-.11-.472-.165-.681a8,8,0,0,1-.331-1.987,4.191,4.191,0,0,1,1.339-3.143,6.109,6.109,0,0,1,2.7-1.494,6.969,6.969,0,0,1,4.116.047,5.139,5.139,0,0,1,3.644,4.281,4.908,4.908,0,0,1,.043,1.792,4.4,4.4,0,0,1-1.4,2.436,6.535,6.535,0,0,1-4.475,1.773q-5.7.08-11.4.111c-1.481.009-2.963-.005-4.443-.058a11.772,11.772,0,0,1-2.777-.4,2.851,2.851,0,0,1-2.235-2.386,11.993,11.993,0,0,1-.21-1.918c-.018-1.862.02-3.725.018-5.588a1.239,1.239,0,0,1,.436-1.008c.189-.162.377-.327.574-.479.464-.358.934-.709,1.4-1.063.3-.229.326-.235.769-.165,0,.164,0,.337,0,.509q.015,4.18.03,8.361c0,.586.22.923.68,1.046a1.35,1.35,0,0,0,.347.036q5.478,0,10.957,0C434.006,692.958,434.108,692.946,434.283,692.935Zm5.3.427c.2-.017.411-.021.611-.056a4.064,4.064,0,0,0,.593-.155,2.669,2.669,0,0,0,1.927-2.724,2.861,2.861,0,0,0-2.067-2.75,3.481,3.481,0,0,0-3.408.893,2.334,2.334,0,0,0-.722,1.692A3.013,3.013,0,0,0,439.578,693.362Z" transform="translate(-387.262 -682.965)" fill="#0d0e10"/>
            <path id="Path_12" data-name="Path 12" d="M154.963,708.978c.028.613.064,1.163.077,1.713.036,1.451.063,2.9.094,4.355,0,.044,0,.088.006.132a2.268,2.268,0,0,0,2.2,2.4,7.4,7.4,0,0,0,3.089-.227,2.025,2.025,0,0,0,1.583-1.845,15,15,0,0,0,.05-1.71c0-.748-.022-1.5-.029-2.243a1.461,1.461,0,0,1,.636-1.233c.45-.348.853-.76,1.269-1.151a1.871,1.871,0,0,1,1.258-.615c-.019.441-.042.864-.055,1.286a22.378,22.378,0,0,0-.06,3.25c.01.087.013.176.029.262.067.359.111.427.481.441,1.245.047,2.49.088,3.736.1,1.115.01,2.231.005,3.344-.044,1.2-.053,2.4-.144,3.594-.259.893-.086,1.154-.336,1.268-1.222a14.24,14.24,0,0,0,.032-1.576c.011-.628-.009-1.259.053-1.882a1.3,1.3,0,0,1,.36-.73c.539-.536,1.118-1.034,1.7-1.53a2.121,2.121,0,0,1,.569-.328c.355-.147.492-.053.509.327.014.322.014.645.019.968.022,1.246.067,2.492.059,3.738a8.322,8.322,0,0,1-.321,2.3,5.774,5.774,0,0,1-.2.582,3.309,3.309,0,0,1-2.985,2.1c-3.306.345-6.621.2-9.933.233-.6.006-1.2.013-1.8,0a.54.54,0,0,0-.525.3,13.425,13.425,0,0,1-.952,1.317,5.1,5.1,0,0,1-2.429,1.6,11.091,11.091,0,0,1-3.545.564,9.128,9.128,0,0,1-3.877-.853,5.153,5.153,0,0,1-1.5-1.064,2.455,2.455,0,0,1-.7-1.7c-.045-1.656-.136-3.31-.217-4.965a.587.587,0,0,1,.224-.571c.86-.662,1.7-1.344,2.558-2.015A3.058,3.058,0,0,1,154.963,708.978Z" transform="translate(-151.839 -703.511)" fill="#0d0e10"/>
            <path id="Path_13" data-name="Path 13" d="M650.413,709.375c.011.225.029.38.026.534-.026,1.011-.065,2.021-.083,3.032-.006.336.038.672.051,1.009a.283.283,0,0,0,.3.307c.2.015.408.05.612.048,2.009-.016,4.017-.032,6.026-.059a1.426,1.426,0,0,0,1.528-1.381,7.812,7.812,0,0,0,.023-.966c0-.469-.015-.938-.009-1.407a1.564,1.564,0,0,1,.419-1.082,11.814,11.814,0,0,1,2.6-2.152c.182-.108.385-.18.629-.291.011.213.026.354.023.495-.026,1.393-.025,2.787-.1,4.177a15.97,15.97,0,0,1-.312,2.48,3.208,3.208,0,0,1-3.192,2.913,28.711,28.711,0,0,1-2.98.183c-1.671.024-3.343-.005-5.015-.012h-.5a1.662,1.662,0,0,0-.1.294,3.7,3.7,0,0,1-1.593,2.533,6.957,6.957,0,0,1-3.163,1.231,9.089,9.089,0,0,1-1.05.088c-.356.012-.537-.093-.614-.436a7.154,7.154,0,0,1-.152-1.259c-.015-.364.034-.73.056-1.129.31-.077.624-.14.928-.234a11.256,11.256,0,0,0,1.2-.415,1.556,1.556,0,0,0,.944-1.287,7.5,7.5,0,0,0,.075-.962c.009-.909.01-1.818,0-2.727a1.541,1.541,0,0,1,.647-1.318c.517-.407.98-.88,1.472-1.319a8.669,8.669,0,0,1,.708-.59A4.368,4.368,0,0,1,650.413,709.375Z" transform="translate(-585.849 -704.139)" fill="#0d0e10"/>
            <path id="Path_14" data-name="Path 14" d="M828.488,693.118v11.695a12.382,12.382,0,0,1-2.538.049c-.1-.3-.126-11.167-.025-11.744Z" transform="translate(-746.482 -691.922)" fill="#0d0e10"/>
            <path id="Path_15" data-name="Path 15" d="M663.493,697.794v-2.139h2.373a2.906,2.906,0,0,1,.031.316c-.007.542-.032,1.083-.027,1.624a2.219,2.219,0,0,1-1.122,2.006c-.207.13-.43.234-.667.362l-.561-.8c.519-.336,1.112-.593,1.162-1.369Z" transform="translate(-603.235 -694.161)" fill="#e91818"/>
            <path id="Path_16" data-name="Path 16" d="M755.616,683.213c.1.009.206.01.306.027a1.21,1.21,0,0,1,.994,1.031,1.177,1.177,0,0,1-.808,1.132,1.325,1.325,0,0,1-1.356-.232.984.984,0,0,1-.376-1.049,1.166,1.166,0,0,1,.936-.877A2.091,2.091,0,0,1,755.616,683.213Z" transform="translate(-683.385 -683.184)" fill="#0d0e10"/>
            <path id="Path_17" data-name="Path 17" d="M780.9,683.245a1.2,1.2,0,0,1,1.257.994,1.218,1.218,0,0,1-1.38,1.278.775.775,0,0,1-.086-.019,1.177,1.177,0,0,1-1.074-1.229A1.216,1.216,0,0,1,780.9,683.245Z" transform="translate(-705.682 -683.212)" fill="#0d0e10"/>
            <path id="Path_18" data-name="Path 18" d="M201.27,717.962a1.159,1.159,0,0,1-1.261-1.292,1.261,1.261,0,0,1,1.454-.97,1.2,1.2,0,0,1,1.084,1.228A1.222,1.222,0,0,1,201.27,717.962Z" transform="translate(-194.326 -711.832)" fill="#0d0e10"/>
            <path id="Path_19" data-name="Path 19" d="M351.294,803.382a2.4,2.4,0,0,1-.35-.045,1.129,1.129,0,0,1-.88-1.234,1.257,1.257,0,0,1,1.378-.957,1.693,1.693,0,0,1,.258.052,1.115,1.115,0,0,1,.861,1.164,1.163,1.163,0,0,1-1.008,1C351.482,803.375,351.408,803.375,351.294,803.382Z" transform="translate(-326.705 -787.22)" fill="#0d0e10"/>
            <path id="Path_20" data-name="Path 20" d="M326.175,803.365a1.2,1.2,0,0,1-1.258-.931,1.184,1.184,0,0,1,1.329-1.306c.044,0,.086.016.129.023a1.172,1.172,0,0,1,1.047,1.158A1.207,1.207,0,0,1,326.175,803.365Z" transform="translate(-304.521 -787.207)" fill="#0d0e10"/>
          </g>
        </g>
      </g>
    </g>
    <g id="circle" transform="translate(2.161 553.132)">
      <g id="Group_4025" data-name="Group 4025" transform="translate(198.839 85.868)">
        <g id="Ellipse_27" data-name="Ellipse 27" transform="translate(0 -0.001)" fill="none" stroke="#cfcfcf" stroke-width="1">
          <circle cx="18" cy="18" r="18" stroke="none"/>
          <circle cx="18" cy="18" r="17.5" fill="none"/>
        </g>
        <path id="Path_21" data-name="Path 21" d="M456.552,220.9c2.755.015,5.458,0,8.193.02,0,.18,0,.308,0,.435-.045,1.845-.087,3.69-.14,5.535a21.411,21.411,0,0,1-.112,2.195,7.321,7.321,0,0,1-2.76,4.8,12.842,12.842,0,0,1-3.04,1.809,1.277,1.277,0,0,1-.16.043l-1.926-2.875.376-.183a8.048,8.048,0,0,0,2.565-1.809,4.055,4.055,0,0,0,1-1.966c.033-.172.041-.348.065-.568-.477-.032-.922-.008-1.367-.007-.461,0-.923.011-1.385.013s-.9,0-1.394,0C456.476,225.866,456.551,223.412,456.552,220.9Z" transform="translate(-442.437 -209.203)" fill="#e91818"/>
      </g>
    </g>
  </g>
</svg>
