<svg xmlns="http://www.w3.org/2000/svg" width="20" height="23.268" viewBox="0 0 20 23.268">
  <g id="social-apple-svgrepo-com" transform="translate(-15.618 -10)">
    <path id="Path_4348" data-name="Path 4348" d="M34.938,31.088a5.933,5.933,0,0,0-4.471-2.359c-2.1,0-2.99,1-4.448,1-1.5,0-2.646-1-4.463-1a6.076,6.076,0,0,0-4.887,2.938c-1.694,2.607-1.407,7.511,1.339,11.69.982,1.494,2.294,3.175,4.009,3.191,1.524.014,1.956-.972,4.024-.984s2.46.995,3.984.98c1.715-.016,3.1-1.877,4.081-3.372a16.752,16.752,0,0,0,1.512-2.822A5.115,5.115,0,0,1,34.938,31.088Z" transform="translate(0 -13.282)" fill="#231f20" fill-rule="evenodd"/>
    <path id="Path_4349" data-name="Path 4349" d="M52.313,13.777A5.1,5.1,0,0,0,53.446,10a5.509,5.509,0,0,0-3.558,1.914A4.733,4.733,0,0,0,48.725,15.6,4.653,4.653,0,0,0,52.313,13.777Z" transform="translate(-23.44)" fill="#231f20" fill-rule="evenodd"/>
  </g>
</svg>
