<svg xmlns="http://www.w3.org/2000/svg" width="57.5" height="103.109" viewBox="0 0 57.5 103.109">
  <path id="Path_21" data-name="Path 21" d="M457.032,220.9c19.14.1,37.921.011,56.93.139,0,1.251.019,2.137,0,3.021-.315,12.821-.6,25.642-.971,38.461a148.765,148.765,0,0,1-.781,15.249c-1.814,13.687-8.6,24.659-19.178,33.371A89.25,89.25,0,0,1,471.908,323.7a8.918,8.918,0,0,1-1.111.3l-13.379-19.974,2.615-1.27c6.628-3.214,12.842-7.014,17.821-12.567a28.178,28.178,0,0,0,6.972-13.658c.229-1.193.282-2.419.45-3.946-3.312-.225-6.409-.058-9.5-.05-3.207.009-6.413.075-9.62.092-3.117.016-6.233,0-9.686,0C456.5,255.433,457.024,238.384,457.032,220.9Z" transform="translate(-456.471 -220.895)" fill="#eee"/>
</svg>
