<svg xmlns="http://www.w3.org/2000/svg" width="15" height="19" viewBox="0 0 15 19">
  <path id="shopping_bag_FILL0_wght300_GRAD0_opsz24" d="M6.3,21.5a1.793,1.793,0,0,1-1.8-1.8V8.3A1.793,1.793,0,0,1,6.3,6.5H8.25V6.25A3.612,3.612,0,0,1,9.35,3.6a3.742,3.742,0,0,1,5.3,0,3.612,3.612,0,0,1,1.1,2.65V6.5H17.7a1.793,1.793,0,0,1,1.8,1.8V19.7a1.793,1.793,0,0,1-1.8,1.8Zm0-1.5H17.7a.354.354,0,0,0,.3-.3V8.3a.354.354,0,0,0-.3-.3H15.75v2.25a.75.75,0,1,1-1.5,0V8H9.75v2.25a.75.75,0,1,1-1.5,0V8H6.3a.354.354,0,0,0-.3.3V19.7a.354.354,0,0,0,.3.3ZM9.75,6.5h4.5V6.25A2.22,2.22,0,0,0,12,4,2.22,2.22,0,0,0,9.75,6.25ZM6,20v0Z" transform="translate(-4.5 -2.5)"/>
</svg>
