<svg xmlns="http://www.w3.org/2000/svg" width="101.199" height="27" viewBox="0 0 101.199 27">
    <g data-name="Group 1188">
        <path data-name="Rectangle 684" transform="translate(28.131)" style="fill:#0c0f1e" d="M0 0h3.695v26.935H0z"/>
        <path data-name="Rectangle 685" transform="translate(20.621)" style="fill:#0c0f1e" d="M0 0h1.847v26.935H0z"/>
        <path data-name="Rectangle 686" transform="translate(41.242)" style="fill:#0c0f1e" d="M0 0h1.848v26.935H0z"/>
        <path data-name="Rectangle 687" transform="translate(37.487)" style="fill:#0c0f1e" d="M0 0h1.848v26.935H0z"/>
        <path data-name="Rectangle 688" transform="translate(5.603)" style="fill:#0c0f1e" d="M0 0h1.907v26.935H0z"/>
        <path data-name="Rectangle 689" transform="translate(11.264)" style="fill:#0c0f1e" d="M0 0h1.848v26.935H0z"/>
        <path data-name="Rectangle 690" style="fill:#0c0f1e" d="M0 0h3.755v27H0z"/>
        <path data-name="Rectangle 691" transform="translate(44.997)" style="fill:#0c0f1e" d="M0 0h1.848v26.935H0z"/>
        <path data-name="Rectangle 692" transform="translate(82.426)" style="fill:#0c0f1e" d="M0 0h3.755v26.935H0z"/>
        <path data-name="Rectangle 693" transform="translate(91.842)" style="fill:#0c0f1e" d="M0 0h5.602v26.935H0z"/>
        <path data-name="Rectangle 694" transform="translate(99.292)" style="fill:#0c0f1e" d="M0 0h1.907v26.935H0z"/>
        <path data-name="Rectangle 696" transform="translate(69.314)" style="fill:#0c0f1e" d="M0 0h3.755v26.935H0z"/>
        <path data-name="Rectangle 697" transform="translate(76.824)" style="fill:#0c0f1e" d="M0 0h3.755v26.935H0z"/>
        <path data-name="Rectangle 698" transform="translate(61.805)" style="fill:#0c0f1e" d="M0 0h3.755v26.935H0z"/>
        <path data-name="Rectangle 699" transform="translate(52.447)" style="fill:#0c0f1e" d="M0 0h3.755v26.935H0z"/>
    </g>
</svg>
