<svg xmlns="http://www.w3.org/2000/svg" width="71.145" height="26.896" viewBox="0 0 71.145 26.896">
    <g data-name="Group 1188">
        <path data-name="Rectangle 684" transform="translate(19.891)" style="fill:#0c0f1e" d="M0 0h3.262v26.896H0z"/>
        <path data-name="Rectangle 685" transform="translate(13.261)" style="fill:#0c0f1e" d="M0 0h1.631v26.896H0z"/>
        <path data-name="Rectangle 686" transform="translate(31.467)" style="fill:#0c0f1e" d="M0 0h1.632v26.896H0z"/>
        <path data-name="Rectangle 687" transform="translate(28.152)" style="fill:#0c0f1e" d="M0 0h1.632v26.896H0z"/>
        <path data-name="Rectangle 688" style="fill:#0c0f1e" d="M0 0h1.684v26.896H0z"/>
        <path data-name="Rectangle 689" transform="translate(4.998)" style="fill:#0c0f1e" d="M0 0h1.631v26.896H0z"/>
        <path data-name="Rectangle 691" transform="translate(34.783)" style="fill:#0c0f1e" d="M0 0h1.632v26.896H0z"/>
        <path data-name="Rectangle 692" transform="translate(67.83)" style="fill:#0c0f1e" d="M0 0h3.315v26.896H0z"/>
        <path data-name="Rectangle 696" transform="translate(56.253)" style="fill:#0c0f1e" d="M0 0h3.315v26.896H0z"/>
        <path data-name="Rectangle 697" transform="translate(62.884)" style="fill:#0c0f1e" d="M0 0h3.315v26.896H0z"/>
        <path data-name="Rectangle 698" transform="translate(49.623)" style="fill:#0c0f1e" d="M0 0h3.315v26.896H0z"/>
        <path data-name="Rectangle 699" transform="translate(41.36)" style="fill:#0c0f1e" d="M0 0h3.316v26.896H0z"/>
    </g>
</svg>
