<svg xmlns="http://www.w3.org/2000/svg" width="60" height="64.389" viewBox="0 0 60 64.389">
  <path id="Path_83486" data-name="Path 83486" d="M73.27,53.535A8.081,8.081,0,0,0,68.2,54.844l-5.67-8.2,9.961-.014a5.112,5.112,0,0,0,4.954-5.254l-.158-5.388a3.387,3.387,0,0,0-2.061-3.049,3.285,3.285,0,0,0-3.544.661,8.069,8.069,0,0,0-2.367,4.578c-1.168-.193-2.322-.394-3.273-.561a1.286,1.286,0,0,0-1.481.931,1.258,1.258,0,0,0,1,1.539c1.05.185,2.353.411,3.657.625l.1,3.451L43.6,44.07a7.5,7.5,0,0,1-7.384-6.229h14a32.642,32.642,0,0,1,4.082.36,1.276,1.276,0,0,0,.17.011,1.258,1.258,0,0,0,1.25-1.131A1.287,1.287,0,0,0,54.59,35.7c-1.35-.182-2.466-.3-3.38-.347L48.876,25.85A14.251,14.251,0,0,0,48,23.379l4.557-6.85a6.381,6.381,0,0,0-3.037-9.5l-9.981-3.81a7.862,7.862,0,0,0-14.182,5.3l-6.415,7.638a6.353,6.353,0,0,0-1.38,5.31,6.452,6.452,0,0,0,4,4.718l3.324,1.3s0,32.1,0,35.638a1.258,1.258,0,0,0,1.258,1.258h5.123a1.258,1.258,0,0,0,1.258-1.258V51.708H43.957V63.132a1.258,1.258,0,0,0,1.258,1.258h5.123A1.258,1.258,0,0,0,51.6,63.132V48.593C52.985,50.168,64.052,62.78,64.052,62.78a5.071,5.071,0,0,0,3.562,1.607l.163,0A5.07,5.07,0,0,0,71.269,63l3.983-3.742a3.321,3.321,0,0,0-1.983-5.727Zm.145-18.1a.805.805,0,0,1,1.36.559l.16,5.463a2.594,2.594,0,0,1-2.513,2.666l-.579.017-.126-4.282h0a5.892,5.892,0,0,1,1.7-4.424ZM49.08,46.585v2.608H27.4V46.585ZM36.971,44.07H32.526V32.4l.846,3.447a10.028,10.028,0,0,1,.256,1.567,9.982,9.982,0,0,0,3.344,6.659ZM50.931,11.819a3.845,3.845,0,0,1-.463,3.317l-3.839,5.771a18.382,18.382,0,0,0-1.687-2.168c-.322-.355-.654-.688-.992-1q1.382-1.932,2.766-3.865a1.307,1.307,0,0,0,.255-.711,1.26,1.26,0,0,0-.744-1.2l-4.373-1.956A7.847,7.847,0,0,0,41.493,8l-.485-1.523,7.619,2.909a3.848,3.848,0,0,1,2.3,2.435Zm-9.4.8,2.259,1.011-1.822,2.547a11.866,11.866,0,0,0-1.774-.96A7.928,7.928,0,0,0,41.535,12.62ZM31.574,2.768a5.347,5.347,0,0,1,6.72,3.474l.8,2.518A5.349,5.349,0,0,1,28.9,12.006l-.8-2.518A5.356,5.356,0,0,1,31.574,2.768ZM29.115,16.543a7.928,7.928,0,0,0,1.9,1.111c-.111.179-.217.366-.314.562a2.442,2.442,0,0,1-1.422,1.248,2.409,2.409,0,0,1-1.937-.21l-.176-.1ZM20.037,21a3.848,3.848,0,0,1,.836-3.217l5.241-6.241.39,1.226a7.843,7.843,0,0,0,.887,1.878l-3.1,4.147a1.258,1.258,0,0,0,.39,1.849c1.123.644,2.513,1.539,3.846,1.46a4.877,4.877,0,0,0,1.432-.217,5,5,0,0,0,2.99-2.548,4.41,4.41,0,0,1,.335-.565,4.288,4.288,0,0,1,.439-.53c.094,0,.188.006.282.006a7.85,7.85,0,0,0,4.029-1.116c3.845.9,7.468,5.523,8.4,9.317l2.179,8.876H35.835l-1.542-6.281a1.258,1.258,0,0,0-.763-.871L22.479,23.852A3.919,3.919,0,0,1,20.037,21Zm9.973,8.5V44.07H27.4V28.478Zm0,32.376H27.4V51.708H30.01Zm16.462,0V51.708H49.08V61.874ZM53.191,46.6l6.275.032,6.8,9.827-2.487,2.336C62.105,56.956,54.666,48.264,53.191,46.6Zm20.34,10.83-3.983,3.742a2.571,2.571,0,0,1-1.85.7,2.678,2.678,0,0,1-1.858-.865l-.35-.373L68.61,57.7h0a5.892,5.892,0,0,1,4.437-1.662.805.805,0,0,1,.483,1.389Z" transform="translate(-17.451 0)" fill="#91bb37"/>
</svg>
