<svg xmlns="http://www.w3.org/2000/svg" width="25.207" height="25.174" viewBox="0 0 25.207 25.174">
  <path id="published_with_changes_FILL0_wght200_GRAD0_opsz48" d="M134.927,246.251a13.284,13.284,0,0,1-4.156-1.579,12.339,12.339,0,0,1-3.271-2.781,12.534,12.534,0,0,1-2.126-3.759,13.061,13.061,0,0,1-.758-4.467,12.137,12.137,0,0,1,1.4-5.7,14.367,14.367,0,0,1,4.159-4.777h-4.654V222.1h6.566v6.566H131V223.98a12.346,12.346,0,0,0-3.958,4.377,11.271,11.271,0,0,0-1.334,5.307,11.514,11.514,0,0,0,2.537,7.4,11.283,11.283,0,0,0,6.684,4.063Zm.27-7.267-4.788-4.788.78-.78,4.007,4.007,8.05-8.05.78.78Zm7.15,6.274v-6.566h1.091v4.684a12.658,12.658,0,0,0,3.958-4.409,11.247,11.247,0,0,0,1.334-5.3,11.514,11.514,0,0,0-2.537-7.4,11.283,11.283,0,0,0-6.684-4.063v-1.127a12.572,12.572,0,0,1,10.312,12.587,12.217,12.217,0,0,1-1.4,5.712,14.319,14.319,0,0,1-4.159,4.79h4.654v1.091Z" transform="translate(-124.615 -221.077)" fill="#114520"/>
</svg>
