<svg xmlns="http://www.w3.org/2000/svg" width="36.82" height="31.285" viewBox="0 0 36.82 31.285">
  <g id="free-delivery-free-svgrepo-com" transform="translate(0 -38.486)">
    <g id="Group_4116" data-name="Group 4116" transform="translate(0 38.486)">
      <g id="Group_4115" data-name="Group 4115" transform="translate(0 0)">
        <path id="Path_32104" data-name="Path 32104" d="M34.243,56.354l-.954-3.814a.577.577,0,0,0,.456-.564v-.615a2.424,2.424,0,0,0-2.421-2.421H26.981V47.671A1.193,1.193,0,0,0,25.79,46.48H17.714l4.907-1.963a.577.577,0,1,0-.428-1.071l-4.018,1.607a13.551,13.551,0,0,0,2.9-2.255,2.685,2.685,0,1,0-4.27-3.256,23.322,23.322,0,0,0-2.082,4.981,23.324,23.324,0,0,0-2.082-4.981A2.685,2.685,0,1,0,8.369,42.8a13.547,13.547,0,0,0,2.9,2.255L7.248,43.446a.577.577,0,1,0-.428,1.071l4.907,1.963H3.651A1.193,1.193,0,0,0,2.46,47.671V58.126a.577.577,0,1,0,1.153,0V47.671a.038.038,0,0,1,.038-.038H25.79a.038.038,0,0,1,.038.038V58.126a.577.577,0,0,0,1.153,0v-.654h6.8a1.886,1.886,0,0,1,1.791,1.307H33.784a.577.577,0,0,0-.577.577v1.23a1.808,1.808,0,0,0,1.806,1.806h.653v2.537H34.16a3.65,3.65,0,0,0-6.9,0h-.278V60.585a.577.577,0,0,0-1.153,0v4.343H13.866a3.65,3.65,0,0,0-6.9,0H3.651a.038.038,0,0,1-.038-.038V63.622h2.5a.577.577,0,1,0,0-1.153H.577a.577.577,0,1,0,0,1.153H2.46V64.89a1.193,1.193,0,0,0,1.191,1.191H6.766c0,.013,0,.026,0,.038a3.651,3.651,0,1,0,7.3,0c0-.013,0-.026,0-.038H27.059c0,.013,0,.026,0,.038a3.651,3.651,0,1,0,7.3,0c0-.013,0-.026,0-.038h1.884a.577.577,0,0,0,.577-.577v-6.15A3.041,3.041,0,0,0,34.243,56.354ZM12.434,44.425A13.369,13.369,0,0,1,9.286,42.1a1.532,1.532,0,0,1,2.436-1.858,25.227,25.227,0,0,1,2.008,4.966C13.34,44.978,12.893,44.71,12.434,44.425Zm3.277.783a25.237,25.237,0,0,1,2.008-4.966A1.532,1.532,0,0,1,20.155,42.1a13.371,13.371,0,0,1-3.148,2.325C16.548,44.71,16.1,44.978,15.711,45.207Zm11.27,4.885h4.343a1.27,1.27,0,0,1,1.268,1.268V51.4H26.981Zm0,6.226V52.552H32.1l.942,3.767Zm-16.565,12.3a2.5,2.5,0,1,1,2.5-2.5A2.5,2.5,0,0,1,10.416,68.618Zm20.293,0a2.5,2.5,0,1,1,2.5-2.5A2.5,2.5,0,0,1,30.709,68.618Zm4.958-7.379h-.653a.654.654,0,0,1-.653-.653v-.653h1.307v1.307Z" transform="translate(0 -38.486)"/>
      </g>
    </g>
    <g id="Group_4118" data-name="Group 4118" transform="translate(9.224 64.928)">
      <g id="Group_4117" data-name="Group 4117">
        <path id="Path_32105" data-name="Path 32105" d="M129.458,406.172a1.191,1.191,0,1,0,1.191,1.191A1.193,1.193,0,0,0,129.458,406.172Z" transform="translate(-128.267 -406.172)"/>
      </g>
    </g>
    <g id="Group_4120" data-name="Group 4120" transform="translate(29.518 64.928)">
      <g id="Group_4119" data-name="Group 4119">
        <path id="Path_32106" data-name="Path 32106" d="M411.646,406.172a1.191,1.191,0,1,0,1.192,1.191A1.193,1.193,0,0,0,411.646,406.172Z" transform="translate(-410.455 -406.172)"/>
      </g>
    </g>
    <g id="Group_4122" data-name="Group 4122" transform="translate(14.759 62.469)">
      <g id="Group_4121" data-name="Group 4121" transform="translate(0 0)">
        <path id="Path_32107" data-name="Path 32107" d="M214.413,371.967H205.8a.577.577,0,0,0,0,1.153h8.609a.577.577,0,0,0,0-1.153Z" transform="translate(-205.227 -371.967)"/>
      </g>
    </g>
    <g id="Group_4124" data-name="Group 4124" transform="translate(1.23 60.009)">
      <g id="Group_4123" data-name="Group 4123">
        <path id="Path_32108" data-name="Path 32108" d="M25.058,337.763H17.679a.577.577,0,1,0,0,1.153h7.379a.577.577,0,0,0,0-1.153Z" transform="translate(-17.102 -337.763)"/>
      </g>
    </g>
    <g id="Group_4126" data-name="Group 4126" transform="translate(6.15 51.399)">
      <g id="Group_4125" data-name="Group 4125" transform="translate(0 0)">
        <path id="Path_32109" data-name="Path 32109" d="M88.547,218.046h-2.46a.577.577,0,0,0-.577.577v4.92a.577.577,0,0,0,1.153,0v-1.883h1.268a.577.577,0,0,0,0-1.153H86.664V219.2h1.883a.577.577,0,0,0,0-1.153Z" transform="translate(-85.511 -218.046)"/>
      </g>
    </g>
    <g id="Group_4128" data-name="Group 4128" transform="translate(10.454 51.399)">
      <g id="Group_4127" data-name="Group 4127" transform="translate(0 0)">
        <path id="Path_32110" data-name="Path 32110" d="M148.638,221.929a2.113,2.113,0,0,0-1.155-3.883h-1.537a.577.577,0,0,0-.577.577v4.92a.577.577,0,1,0,1.153,0v-1.268h.96l1.059,1.588a.576.576,0,1,0,.959-.64Zm-1.155-.808h-.961V219.2h.961a.961.961,0,0,1,0,1.922Z" transform="translate(-145.369 -218.046)"/>
      </g>
    </g>
    <g id="Group_4130" data-name="Group 4130" transform="translate(15.374 51.399)">
      <g id="Group_4129" data-name="Group 4129" transform="translate(0 0)">
        <path id="Path_32111" data-name="Path 32111" d="M216.814,222.966h-1.883v-1.309l.038,0h1.23a.577.577,0,0,0,0-1.153h-1.23l-.038,0V219.2h1.883a.577.577,0,0,0,0-1.153h-2.46a.577.577,0,0,0-.577.577v4.92a.577.577,0,0,0,.577.577h2.46a.577.577,0,1,0,0-1.153Z" transform="translate(-213.778 -218.046)"/>
      </g>
    </g>
    <g id="Group_4132" data-name="Group 4132" transform="translate(19.678 51.399)">
      <g id="Group_4131" data-name="Group 4131" transform="translate(0 0)">
        <path id="Path_32112" data-name="Path 32112" d="M276.672,222.966h-1.883v-1.307h.653a.577.577,0,0,0,0-1.153h-.653V219.2h1.883a.577.577,0,1,0,0-1.153h-2.46a.577.577,0,0,0-.577.577v4.92a.577.577,0,0,0,.577.577h2.46a.577.577,0,1,0,0-1.153Z" transform="translate(-273.636 -218.046)"/>
      </g>
    </g>
  </g>
</svg>
