<svg id="quote-svgrepo-com" xmlns="http://www.w3.org/2000/svg" width="29" height="21.457" viewBox="0 0 29 21.457">
  <path id="Path_83427" data-name="Path 83427" d="M6.767,66.59a6.768,6.768,0,0,0,0,13.537A14.228,14.228,0,0,1,4.692,86.26,1.377,1.377,0,0,0,7,87.621c4.7-5.137,6.535-11.184,6.535-14.262A6.768,6.768,0,0,0,6.767,66.59Z" transform="translate(0 -66.59)" fill="#cbcbcb"/>
  <path id="Path_83428" data-name="Path 83428" d="M279.777,66.59a6.768,6.768,0,0,0,0,13.537A14.228,14.228,0,0,1,277.7,86.26a1.377,1.377,0,0,0,2.309,1.361c4.7-5.137,6.536-11.184,6.536-14.262A6.769,6.769,0,0,0,279.777,66.59Z" transform="translate(-257.547 -66.59)" fill="#cbcbcb"/>
</svg>
