<svg xmlns="http://www.w3.org/2000/svg" width="16.951" height="16.8" viewBox="0 0 16.951 16.8">
  <path id="edit_FILL0_wght300_GRAD0_opsz24_2_" data-name="edit_FILL0_wght300_GRAD0_opsz24 (2)" d="M5.15,19H6.4l9.25-9.25L14.425,8.5,5.15,17.775ZM18.85,8.65,15.475,5.3l1.1-1.1a1.8,1.8,0,0,1,1.288-.5,1.711,1.711,0,0,1,1.262.5L20.15,5.225a1.6,1.6,0,0,1,.45,1.062,1.3,1.3,0,0,1-.425,1.038Zm-1.075,1.1L7.025,20.5H3.65V17.125L14.4,6.375Zm-2.75-.625-.6-.625L15.65,9.75Z" transform="translate(-3.65 -3.7)"/>
</svg>
