<svg xmlns="http://www.w3.org/2000/svg" width="23.579" height="27.146" viewBox="0 0 23.579 27.146">
  <path id="contact_support_FILL0_wght200_GRAD0_opsz48" d="M174.8,243.146l-.091-3.386H171.9a11.914,11.914,0,1,1,8.289-20.341,11.876,11.876,0,0,1,3.395,8.419,16.066,16.066,0,0,1-.615,4.4,17.973,17.973,0,0,1-1.767,4.15,19.892,19.892,0,0,1-2.781,3.7A21.715,21.715,0,0,1,174.8,243.146Zm1.028-2.34a19.368,19.368,0,0,0,4.763-5.9,15.04,15.04,0,0,0,1.782-7.066,10.332,10.332,0,0,0-3.015-7.6,10.087,10.087,0,0,0-7.441-3.029,10.671,10.671,0,1,0-.018,21.342h3.93Zm-3.851-4.731a1.093,1.093,0,0,0,.8-.326,1.08,1.08,0,0,0,0-1.548,1.093,1.093,0,0,0-.8-.326,1.1,1.1,0,0,0,0,2.2Zm-.638-4.74h1.209a3.663,3.663,0,0,1,.425-1.525,8.607,8.607,0,0,1,1.425-1.725,6.531,6.531,0,0,0,1.206-1.567,3.6,3.6,0,0,0,.387-1.679,3.477,3.477,0,0,0-1.108-2.636,3.964,3.964,0,0,0-2.84-1.049,4.176,4.176,0,0,0-2.479.759,4.791,4.791,0,0,0-1.608,1.92l1.112.444a3.528,3.528,0,0,1,1.138-1.362,3.042,3.042,0,0,1,1.779-.491,2.773,2.773,0,0,1,2.1.721,2.348,2.348,0,0,1,.683,1.664,2.746,2.746,0,0,1-.417,1.5,9.776,9.776,0,0,1-1.306,1.558,5.89,5.89,0,0,0-1.356,1.738,4.17,4.17,0,0,0-.355,1.732ZM171.789,229.023Z" transform="translate(-160 -216)" fill="#114520"/>
</svg>
