<svg xmlns="http://www.w3.org/2000/svg" width="22" height="22" viewBox="0 0 22 22">
  <g id="vuesax_outline_eye" data-name="vuesax/outline/eye" transform="translate(-108 -188)">
    <g id="eye" transform="translate(108 188)">
      <path id="Vector" d="M3.969,7.938A3.969,3.969,0,1,1,7.938,3.969,3.971,3.971,0,0,1,3.969,7.938Zm0-6.563A2.594,2.594,0,1,0,6.563,3.969,2.6,2.6,0,0,0,3.969,1.375Z" transform="translate(7.031 7.031)" fill="#292d32"/>
      <path id="Vector-2" data-name="Vector" d="M9.666,16.537c-3.447,0-6.7-2.017-8.938-5.518a5.553,5.553,0,0,1,0-5.5C2.975,2.017,6.229,0,9.666,0s6.692,2.017,8.928,5.518a5.553,5.553,0,0,1,0,5.5C16.358,14.52,13.1,16.537,9.666,16.537Zm0-15.162c-2.961,0-5.793,1.778-7.773,4.886a4.166,4.166,0,0,0,0,4.015c1.98,3.108,4.812,4.886,7.773,4.886s5.793-1.778,7.773-4.886a4.166,4.166,0,0,0,0-4.015C15.46,3.153,12.627,1.375,9.666,1.375Z" transform="translate(1.334 2.732)" fill="#292d32"/>
      <path id="Vector-3" data-name="Vector" d="M0,0H22V22H0Z" fill="none" opacity="0"/>
    </g>
  </g>
</svg>
