<svg xmlns="http://www.w3.org/2000/svg" xmlns:xlink="http://www.w3.org/1999/xlink" width="70.123" height="70.123" viewBox="0 0 70.123 70.123">
  <defs>
    <clipPath id="clip-path">
      <path id="path1050" d="M0-682.665H70.123v70.123H0Z" transform="translate(0 682.665)"/>
    </clipPath>
  </defs>
  <g id="g1044" transform="translate(0 682.665)">
    <g id="g1046" transform="translate(0 -682.665)">
      <g id="g1048" clip-path="url(#clip-path)">
        <g id="g1054" transform="translate(41.37 26.848)">
          <path id="path1056" d="M-15.836-128.251v-11.455a3.776,3.776,0,0,0-1.813-3.227" transform="translate(17.649 142.933)" fill="none" stroke="#91bb37" stroke-linecap="round" stroke-linejoin="round" stroke-miterlimit="10" stroke-width="2"/>
        </g>
        <g id="g1058" transform="translate(16.159 41.53)">
          <path id="path1060" d="M0-189.854l14.9-7a15.947,15.947,0,0,0,6.489-5.591l5.639-8.464v-.68" transform="translate(0 211.589)" fill="none" stroke="#91bb37" stroke-linecap="round" stroke-linejoin="round" stroke-miterlimit="10" stroke-width="2"/>
        </g>
        <g id="g1062" transform="translate(38.638 49.031)">
          <path id="path1064" d="M0,0,12.585,3.283l1.37,9.626" fill="none" stroke="#91bb37" stroke-linecap="round" stroke-linejoin="round" stroke-miterlimit="10" stroke-width="2"/>
        </g>
        <g id="g1066" transform="translate(43.183 41.53)">
          <path id="path1068" d="M-131.942-182.474v-11.672a5.455,5.455,0,0,0-3.628-5.14l-11.476-4.078" transform="translate(147.046 203.363)" fill="none" stroke="#91bb37" stroke-linecap="round" stroke-linejoin="round" stroke-miterlimit="10" stroke-width="2"/>
        </g>
        <g id="g1070" transform="translate(41.145 68.754)">
          <path id="path1072" d="M0,0H27.609" fill="none" stroke="#91bb37" stroke-linecap="round" stroke-linejoin="round" stroke-miterlimit="10" stroke-width="2"/>
        </g>
        <g id="g1074" transform="translate(1.37 68.754)">
          <path id="path1076" d="M0,0H27.449" fill="none" stroke="#91bb37" stroke-linecap="round" stroke-linejoin="round" stroke-miterlimit="10" stroke-width="2"/>
        </g>
        <g id="g1078" transform="translate(41.299 17.655)">
          <path id="path1080" d="M-47.723,0H-50.2a3.08,3.08,0,0,0-2.984,2.319h0" transform="translate(53.187)" fill="none" stroke="#91bb37" stroke-linecap="round" stroke-linejoin="round" stroke-miterlimit="10" stroke-width="2"/>
        </g>
        <g id="g1082" transform="translate(35.079 1.37)">
          <path id="path1084" d="M-44.485-20.752-43.014.8A3.285,3.285,0,0,1-46.292,4.31a3.285,3.285,0,0,1-3.285-3.285v-21.6a2.549,2.549,0,0,1,2.549-2.549A2.549,2.549,0,0,1-44.485-20.752Z" transform="translate(49.577 23.128)" fill="none" stroke="#91bb37" stroke-linecap="round" stroke-linejoin="round" stroke-miterlimit="10" stroke-width="2"/>
        </g>
        <g id="g1086" transform="translate(32.427 24.24)">
          <path id="path1088" d="M-11.166-151.029v-2a15.874,15.874,0,0,0-.639-4.46h0a15.88,15.88,0,0,1-.639-4.46,9,9,0,0,1,2.435-6.156l.2-.213" transform="translate(12.444 168.318)" fill="none" stroke="#91bb37" stroke-linecap="round" stroke-linejoin="round" stroke-miterlimit="10" stroke-width="2"/>
        </g>
        <g id="g1090" transform="translate(33.705 41.53)">
          <path id="path1092" d="M0,0H9.478" transform="translate(0 0)" fill="none" stroke="#91bb37" stroke-linecap="round" stroke-linejoin="round" stroke-miterlimit="10" stroke-width="2"/>
        </g>
        <g id="g1094" transform="translate(13.009 41.53)">
          <path id="path1096" d="M-180.782,0a7.22,7.22,0,0,0-4.474,5.385l-16.222,10.893" transform="translate(201.478)" fill="none" stroke="#91bb37" stroke-linecap="round" stroke-linejoin="round" stroke-miterlimit="10" stroke-width="2"/>
        </g>
        <g id="g1098" transform="translate(5.936 57.808)">
          <path id="path1100" d="M-6.418-95.515l9.489-5.478-3.15-5.456H-.087A6.255,6.255,0,0,0-4.413-103,5.477,5.477,0,0,0-6.418-95.515Z" transform="translate(7.153 106.449)" fill="none" stroke="#91bb37" stroke-linecap="round" stroke-linejoin="round" stroke-miterlimit="10" stroke-width="2"/>
        </g>
        <g id="g1102" transform="translate(52.592 61.94)">
          <path id="path1104" d="M-48.2-5.824l-5.518-.667v4.428A2.374,2.374,0,0,0-51.345.312h8.583A6.18,6.18,0,0,0-48.2-5.824Z" transform="translate(53.719 6.491)" fill="none" stroke="#91bb37" stroke-linecap="round" stroke-linejoin="round" stroke-miterlimit="10" stroke-width="2"/>
        </g>
        <g id="g1106" transform="translate(40.764 12.24)">
          <path id="path1108" d="M-7.618-114.6q.283.028.574.028h0a5.752,5.752,0,0,0,5.752-5.752v-1.644a5.752,5.752,0,0,0-5.752-5.752h0a5.762,5.762,0,0,0-1.447.183" transform="translate(8.491 127.724)" fill="none" stroke="#91bb37" stroke-linecap="round" stroke-linejoin="round" stroke-miterlimit="10" stroke-width="2"/>
        </g>
        <g id="g1110" transform="translate(34.982 68.662)">
          <path id="path1112" d="M0,0H0" transform="translate(0)" fill="none" stroke="#91bb37" stroke-linecap="round" stroke-linejoin="round" stroke-miterlimit="10" stroke-width="2"/>
        </g>
      </g>
    </g>
  </g>
</svg>
