<svg id="Group_46201" data-name="Group 46201" xmlns="http://www.w3.org/2000/svg" width="54.857" height="44.4" viewBox="0 0 54.857 44.4">
  <path id="Path_83459" data-name="Path 83459" d="M42.4,7.386a.779.779,0,0,0,0-.857.9.9,0,0,0-.771-.429h-25.2a.9.9,0,0,0-.771.429.779.779,0,0,0,0,.857c2.743,5.229,1.114,8.743-.943,13.114-2.914,6.171-6.6,13.886.943,29.486a.985.985,0,0,0,.771.514H41.714a.824.824,0,0,0,.771-.514c7.629-15.514,3.943-23.229.943-29.486-2.143-4.371-3.771-7.886-1.029-13.114ZM28.943,39.443c-1.714,0-3.857-1.886-6.429-4.029A41.918,41.918,0,0,0,13.257,28.9a27.948,27.948,0,0,1,1.371-4.286,21.421,21.421,0,0,0,14.143,5.057,21.1,21.1,0,0,0,14.4-5.314,22.646,22.646,0,0,1,1.457,4.457,45.842,45.842,0,0,0-9.343,6.6c-2.4,2.229-4.543,4.029-6.343,4.029ZM17.714,7.9H40.257c-2.314,5.314-.429,9.257,1.543,13.371.257.514.429.943.686,1.457-3.171,3.257-8.229,5.229-13.629,5.229A19.319,19.319,0,0,1,15.4,22.9c.257-.514.514-1.114.771-1.629,1.971-4.114,3.857-8.057,1.543-13.371ZM13,30.7a43.254,43.254,0,0,1,8.4,6.086c2.571,2.143,4.629,3.943,6.686,4.371v7.629H16.943C13.171,40.814,12.4,35.157,13,30.7Zm28.114,18H29.8V41.071c2.057-.429,4.114-2.143,6.686-4.371a45.97,45.97,0,0,1,8.571-6.171C45.657,35.157,44.886,40.814,41.114,48.7Z" transform="translate(-1.6 -6.1)" fill="#91bb37"/>
  <path id="Path_83460" data-name="Path 83460" d="M61.1,14.843H52.614L55.7,11.757a.849.849,0,0,0-1.2-1.2L49.957,15.1a.829.829,0,0,0,0,1.2L54.5,20.843a.829.829,0,0,0,1.2,0,.829.829,0,0,0,0-1.2l-3.086-3.086H61.1a.857.857,0,1,0,0-1.714Z" transform="translate(-7.1 -6.7)" fill="#91bb37"/>
  <path id="Path_83461" data-name="Path 83461" d="M12,15.1,7.457,10.557a.849.849,0,1,0-1.2,1.2l3.086,3.086H.857a.857.857,0,0,0,0,1.714H9.343L6.257,19.643a.829.829,0,0,0,0,1.2.533.533,0,0,0,.514.343.926.926,0,0,0,.6-.257l4.543-4.543A.863.863,0,0,0,12,15.1Z" transform="translate(0 -6.7)" fill="#91bb37"/>
</svg>
