<svg xmlns="http://www.w3.org/2000/svg" width="45.564" height="60.793" viewBox="0 0 45.564 60.793">
  <g id="girl" transform="translate(-64.13)">
    <g id="Group_46288" data-name="Group 46288" transform="translate(80.31 20.94)">
      <g id="Group_46287" data-name="Group 46287">
        <path id="Path_84648" data-name="Path 84648" d="M201.294,176.355a.891.891,0,0,0-.891.891v.952a.891.891,0,1,0,1.781,0v-.952A.891.891,0,0,0,201.294,176.355Z" transform="translate(-200.403 -176.355)" fill="#91bb37"/>
      </g>
    </g>
    <g id="Group_46290" data-name="Group 46290" transform="translate(91.732 20.94)">
      <g id="Group_46289" data-name="Group 46289">
        <path id="Path_84649" data-name="Path 84649" d="M297.486,176.355a.89.89,0,0,0-.89.891v.952a.891.891,0,1,0,1.781,0v-.952A.89.89,0,0,0,297.486,176.355Z" transform="translate(-296.596 -176.355)" fill="#91bb37"/>
      </g>
    </g>
    <g id="Group_46292" data-name="Group 46292" transform="translate(83.166 27.602)">
      <g id="Group_46291" data-name="Group 46291">
        <path id="Path_84650" data-name="Path 84650" d="M231.687,232.733a.89.89,0,0,0-1.259-.008,3.924,3.924,0,0,1-4.46,0,.891.891,0,0,0-1.251,1.268,5.618,5.618,0,0,0,6.962,0A.891.891,0,0,0,231.687,232.733Z" transform="translate(-224.452 -232.468)" fill="#91bb37"/>
      </g>
    </g>
    <g id="Group_46294" data-name="Group 46294" transform="translate(64.13)">
      <g id="Group_46293" data-name="Group 46293" transform="translate(0)">
        <path id="Path_84651" data-name="Path 84651" d="M105.289,46.3l-1.307-.461V17.071a17.071,17.071,0,0,0-34.142,0v7.3a28.346,28.346,0,0,0,4.1,14.9A24.6,24.6,0,0,0,77,43.306L68.534,46.3a6.611,6.611,0,0,0-4.4,6.225V59.9a.891.891,0,1,0,1.781,0V52.521a4.8,4.8,0,0,1,.312-1.7l4.5,3.86a2.913,2.913,0,0,1,1.019,2.215V59.9a.891.891,0,0,0,1.781,0V56.894a4.693,4.693,0,0,0-1.64-3.567l-4.72-4.046a4.807,4.807,0,0,1,1.962-1.306l3.76-1.327a15.17,15.17,0,0,0,23.323,6.2A13.6,13.6,0,0,1,98.395,59.9a.891.891,0,1,0,1.781,0c0-3.962-1.7-6.766-3.337-9.479-1.711-2.828-3.326-5.5-3.326-9.557v-.952a.891.891,0,1,0-1.781,0v.952a15.715,15.715,0,0,0,1.661,7.054,9.581,9.581,0,0,1-15.225-3.135l.789-.279a4.7,4.7,0,0,0,3.134-4.43V37.042a13.264,13.264,0,0,0,17.956-10.515h.529a3.49,3.49,0,0,0,1.625-.4V59.9a.891.891,0,1,0,1.781,0V53.921l3.618-3.1a4.8,4.8,0,0,1,.312,1.7V59.9a.891.891,0,1,0,1.781,0V52.521A6.611,6.611,0,0,0,105.289,46.3Zm-18.378,5.93a11.268,11.268,0,0,0,7.336-2.686c.34.6.693,1.185,1.044,1.765A13.388,13.388,0,0,1,74.57,46.054l1.915-.676A11.383,11.383,0,0,0,86.912,52.226Zm-6.6-12.15h0a2.921,2.921,0,0,1-1.482,2.538A25.231,25.231,0,0,1,71.68,26.2a3.27,3.27,0,0,0,1.431.331h.665a13.293,13.293,0,0,0,6.535,9.659Zm21.883-16.662a1.58,1.58,0,0,1-1.617,1.332h-.4v-.052a.89.89,0,0,0-.89-.891h0a.89.89,0,0,0-.891.89,11.483,11.483,0,0,1-22.965-.008.891.891,0,1,0-1.781,0v.061h-.537A1.49,1.49,0,0,1,71.63,23.1a1.58,1.58,0,0,1,1.617-1.332h.34a3.746,3.746,0,0,0,3.746-3.746v-.952a3.84,3.84,0,0,1,1.547-3.1.89.89,0,0,0-1.07-1.424,5.606,5.606,0,0,0-2.259,4.519v.952a1.965,1.965,0,0,1-1.965,1.965h-.34a3.489,3.489,0,0,0-1.625.4V17.071a15.264,15.264,0,0,1,5.5-11.739,30.309,30.309,0,0,0,9.1,11.653,21.877,21.877,0,0,0,13.061,4.784h1.428a1.489,1.489,0,0,1,1.481,1.645Zm.008-3.067a3.271,3.271,0,0,0-1.489-.36H99.285a20.1,20.1,0,0,1-11.979-4.417A28.6,28.6,0,0,1,78.594,4.248,15.283,15.283,0,0,1,102.2,17.071v3.276Zm1.781,31.228V47.724l.714.252a4.808,4.808,0,0,1,1.962,1.306Z" transform="translate(-64.13)" fill="#91bb37"/>
      </g>
    </g>
    <g id="Group_46296" data-name="Group 46296" transform="translate(78.407 17.132)">
      <g id="Group_46295" data-name="Group 46295">
        <path id="Path_84652" data-name="Path 84652" d="M188.96,144.9a.891.891,0,0,0-1.126-.563l-2.855.952a.89.89,0,1,0,.563,1.69l2.855-.952A.891.891,0,0,0,188.96,144.9Z" transform="translate(-184.369 -144.288)" fill="#91bb37"/>
      </g>
    </g>
  </g>
</svg>
