<svg xmlns="http://www.w3.org/2000/svg" width="16" height="14.473" viewBox="0 0 16 14.473">
  <path id="Path_4330" data-name="Path 4330" d="M13.6,3A4.819,4.819,0,0,0,10,4.648,4.819,4.819,0,0,0,6.4,3,4.327,4.327,0,0,0,2,7.338c0,2.981,2.72,5.411,6.84,9.1L10,17.473l1.16-1.041C15.28,12.748,18,10.319,18,7.338A4.327,4.327,0,0,0,13.6,3ZM10.08,15.264l-.08.079-.08-.079C6.112,11.865,3.6,9.617,3.6,7.338a2.715,2.715,0,0,1,2.8-2.76A3.129,3.129,0,0,1,9.256,6.439h1.5A3.109,3.109,0,0,1,13.6,4.577a2.715,2.715,0,0,1,2.8,2.76C16.4,9.617,13.888,11.865,10.08,15.264Z" transform="translate(-2 -3)" fill="#444"/>
</svg>
