<svg xmlns="http://www.w3.org/2000/svg" xmlns:xlink="http://www.w3.org/1999/xlink" width="36" height="36" viewBox="0 0 36 36">
  <defs>
    <linearGradient id="linear-gradient" x1="0.5" y1="0.008" x2="0.5" y2="0.998" gradientUnits="objectBoundingBox">
      <stop offset="0" stop-color="#e09b3d"/>
      <stop offset="0.3" stop-color="#c74c4d"/>
      <stop offset="0.6" stop-color="#c21975"/>
      <stop offset="1" stop-color="#7024c4"/>
    </linearGradient>
    <linearGradient id="linear-gradient-2" y1="-0.451" y2="1.462" xlink:href="#linear-gradient"/>
    <linearGradient id="linear-gradient-3" y1="-1.396" y2="6.586" xlink:href="#linear-gradient"/>
  </defs>
  <g id="Group_2871" data-name="Group 2871" transform="translate(-188 -731)">
    <g id="Rectangle_1854" data-name="Rectangle 1854" transform="translate(188 731)" fill="#fff" stroke="#eee" stroke-width="1">
      <rect width="36" height="36" rx="18" stroke="none"/>
      <rect x="0.5" y="0.5" width="35" height="35" rx="17.5" fill="none"/>
    </g>
    <g id="XMLID_13_" transform="translate(196 739)">
      <path id="XMLID_17_" d="M14.042,0H5.958A5.965,5.965,0,0,0,0,5.958v8.084A5.965,5.965,0,0,0,5.958,20h8.084A5.965,5.965,0,0,0,20,14.042V5.958A5.965,5.965,0,0,0,14.042,0Zm3.946,14.042a3.946,3.946,0,0,1-3.946,3.946H5.958a3.946,3.946,0,0,1-3.946-3.946V5.958A3.946,3.946,0,0,1,5.958,2.012h8.084a3.946,3.946,0,0,1,3.946,3.946v8.084Z" fill="url(#linear-gradient)"/>
      <path id="XMLID_81_" d="M138.173,133a5.173,5.173,0,1,0,5.173,5.173A5.179,5.179,0,0,0,138.173,133Zm0,8.333a3.161,3.161,0,1,1,3.161-3.161A3.161,3.161,0,0,1,138.173,141.333Z" transform="translate(-128.173 -128.173)" fill="url(#linear-gradient-2)"/>
      <circle id="XMLID_83_" cx="1.239" cy="1.239" r="1.239" transform="translate(13.943 3.627)" fill="url(#linear-gradient-3)"/>
    </g>
  </g>
</svg>
