<svg id="language_black_24dp_3_" data-name="language_black_24dp (3)" xmlns="http://www.w3.org/2000/svg" width="24" height="24" viewBox="0 0 24 24">
  <path id="Path_4333" data-name="Path 4333" d="M0,0H24V24H0Z" fill="none"/>
  <path id="language_FILL0_wght300_GRAD0_opsz24" d="M12,21.5a9.209,9.209,0,0,1-3.688-.75A9.528,9.528,0,0,1,3.25,15.688a9.472,9.472,0,0,1,0-7.388A9.551,9.551,0,0,1,8.312,3.25a9.472,9.472,0,0,1,7.388,0A9.592,9.592,0,0,1,20.75,8.3a9.472,9.472,0,0,1,0,7.388A9.569,9.569,0,0,1,15.7,20.75,9.178,9.178,0,0,1,12,21.5Zm0-1.525a12.064,12.064,0,0,0,1.288-2.037,13.472,13.472,0,0,0,.862-2.263H9.85a13.138,13.138,0,0,0,.863,2.287A11.2,11.2,0,0,0,12,19.975ZM10.075,19.7a11.062,11.062,0,0,1-1.037-1.875,11.8,11.8,0,0,1-.713-2.15h-3.4A8.026,8.026,0,0,0,7.05,18.288,7.033,7.033,0,0,0,10.075,19.7Zm3.85,0a7.033,7.033,0,0,0,3.025-1.412,8.026,8.026,0,0,0,2.125-2.613h-3.4a17,17,0,0,1-.75,2.162A10.527,10.527,0,0,1,13.925,19.7ZM4.3,14.175H8.025q-.1-.55-.15-1.088T7.825,12q0-.55.05-1.088t.15-1.087H4.3a6.888,6.888,0,0,0-.225,1.05,8.475,8.475,0,0,0,0,2.25,6.888,6.888,0,0,0,.225,1.05Zm5.225,0h4.95q.1-.55.15-1.075t.05-1.1q0-.575-.05-1.1t-.15-1.075H9.525q-.1.55-.15,1.075T9.325,12q0,.575.05,1.1T9.525,14.175Zm6.45,0H19.7a6.888,6.888,0,0,0,.225-1.05,8.475,8.475,0,0,0,0-2.25,6.888,6.888,0,0,0-.225-1.05H15.975q.1.55.15,1.087T16.175,12q0,.55-.05,1.087t-.15,1.088Zm-.3-5.85h3.4a7.762,7.762,0,0,0-2.112-2.613,7.6,7.6,0,0,0-3.038-1.437A12.622,12.622,0,0,1,14.95,6.187,13.75,13.75,0,0,1,15.675,8.325Zm-5.825,0h4.3a12.727,12.727,0,0,0-.887-2.313A12.011,12.011,0,0,0,12,4.025a11.963,11.963,0,0,0-1.262,1.987A12.679,12.679,0,0,0,9.85,8.325Zm-4.925,0h3.4A13.75,13.75,0,0,1,9.05,6.187a12.622,12.622,0,0,1,1.025-1.912,7.493,7.493,0,0,0-3.05,1.437,7.827,7.827,0,0,0-2.1,2.613Z" transform="translate(-0.093 -0.5)"/>
</svg>
