<svg xmlns="http://www.w3.org/2000/svg" width="45.627" height="48.342" viewBox="0 0 45.627 48.342">
  <g id="Layer_35" transform="translate(-7.455 -5)">
    <g id="Group_46203" data-name="Group 46203" transform="translate(7.455 5)">
      <g id="Group_46202" data-name="Group 46202">
        <path id="Path_83466" data-name="Path 83466" d="M42.127,18.742a.839.839,0,0,0,.645.322.866.866,0,0,0,.483-.161.844.844,0,0,0,.215-1.128l-2.256-3.169a.844.844,0,0,0-1.128-.215.8.8,0,0,0-.215,1.128Z" transform="translate(-22.391 -9.289)" fill="#91bb37"/>
        <path id="Path_83467" data-name="Path 83467" d="M45.884,32.232l2.149-14.717a7.221,7.221,0,0,0-1.289-5.962A6.269,6.269,0,0,0,41.8,9.566H35.678A9.077,9.077,0,0,0,27.836,5a8.95,8.95,0,0,0-7.842,4.619H13.817a6.347,6.347,0,0,0-4.942,1.987C7.64,13,7.211,15.044,7.587,17.569L11.83,46.413c.43,2.9,2.525,4.619,5.64,4.619h18.1a10.656,10.656,0,0,0,6.66,2.31,10.875,10.875,0,0,0,3.652-21.109ZM27.836,6.611a7.359,7.359,0,1,1-7.359,7.359A7.37,7.37,0,0,1,27.836,6.611Zm-14.4,39.533L9.2,17.3a5.653,5.653,0,0,1,.913-4.673,4.778,4.778,0,0,1,3.706-1.4h5.425a9.139,9.139,0,0,0-.43,2.739,8.97,8.97,0,1,0,17.94,0,9.139,9.139,0,0,0-.43-2.739h5.425a4.778,4.778,0,0,1,3.706,1.4c.913,1.021,1.235,2.632.913,4.673L44.219,31.8a12.5,12.5,0,0,0-2.041-.215A10.836,10.836,0,0,0,31.65,39.806H18.222a.826.826,0,0,0-.806.806v4.673a.826.826,0,0,0,.806.806h13.75a10.7,10.7,0,0,0,1.88,3.33H17.47c-2.256,0-3.706-1.128-4.028-3.276ZM31.6,44.479H19.081V41.471H31.435a6.168,6.168,0,0,0-.054,1.021,11.85,11.85,0,0,0,.215,1.987ZM42.285,51.73a9.239,9.239,0,1,1,9.185-9.239,9.158,9.158,0,0,1-9.185,9.239Z" transform="translate(-7.455 -5)" fill="#91bb37"/>
        <path id="Path_83468" data-name="Path 83468" d="M7.278,6.446,5.13,8.594V.806a.806.806,0,1,0-1.611,0V8.594L1.37,6.446a.779.779,0,0,0-1.128,0,.779.779,0,0,0,0,1.128l3.545,3.545a.808.808,0,0,0,.591.215.808.808,0,0,0,.591-.215L8.513,7.574a.779.779,0,0,0,0-1.128.908.908,0,0,0-1.235,0Z" transform="translate(39.261 43.132) rotate(180)" fill="#91bb37"/>
      </g>
    </g>
  </g>
</svg>
