<svg xmlns="http://www.w3.org/2000/svg" width="13.166" height="13.166" viewBox="0 0 13.166 13.166">
  <path id="window_FILL0_wght300_GRAD0_opsz20" d="M4.75,16.583A1.349,1.349,0,0,1,3.417,15.25V4.75A1.351,1.351,0,0,1,4.75,3.417h10.5A1.351,1.351,0,0,1,16.583,4.75v10.5a1.349,1.349,0,0,1-1.333,1.333Zm5.792-6.041V15.5H15.25a.249.249,0,0,0,.25-.25V10.542Zm0-1.084H15.5V4.75a.249.249,0,0,0-.25-.25H10.542Zm-1.084,0V4.5H4.75a.249.249,0,0,0-.25.25V9.458Zm0,1.084H4.5V15.25a.249.249,0,0,0,.25.25H9.458Z" transform="translate(-3.417 -3.417)"/>
</svg>
