<svg xmlns="http://www.w3.org/2000/svg" width="45.647" height="56" viewBox="0 0 45.647 56">
  <path id="Path_84654" data-name="Path 84654" d="M53.824,4H36.4a1,1,0,0,0,0,2h6.132V58h-9a3.835,3.835,0,0,0,.509-1.884V39.82a3.475,3.475,0,0,0,1.517.358,3.521,3.521,0,0,0,3.517-3.518V24.914a6.356,6.356,0,0,0-6.349-6.349H21.818a6.356,6.356,0,0,0-6.349,6.349V36.66a3.521,3.521,0,0,0,3.517,3.518A3.475,3.475,0,0,0,20.5,39.82v16.3A3.835,3.835,0,0,0,21.012,58H10.176a1,1,0,0,0,0,2H53.824a1,1,0,0,0,1-1V5a1,1,0,0,0-1-1ZM22.5,56.116V29.607a1,1,0,0,0-2,0V36.66a1.517,1.517,0,1,1-3.034,0V24.914a4.354,4.354,0,0,1,4.349-4.349H32.726a4.354,4.354,0,0,1,4.349,4.349V36.66a1.517,1.517,0,1,1-3.034,0V29.607a1,1,0,1,0-2,0V56.116a1.884,1.884,0,0,1-3.769,0V39.178a1,1,0,0,0-2,0V56.116a1.884,1.884,0,0,1-3.768,0ZM52.824,58h-8.3V53.373h4.148a1,1,0,0,0,0-2H44.528V47.552h2.234a1,1,0,0,0,0-2H44.528v-3.82h4.148a1,1,0,0,0,0-2H44.528V35.91h2.234a1,1,0,0,0,0-2H44.528V30.09h4.148a1,1,0,0,0,0-2H44.528V24.269h2.234a1,1,0,0,0,0-2H44.528v-3.82h4.148a1,1,0,0,0,0-2H44.528V12.627h2.234a1,1,0,0,0,0-2H44.528V6h8.3Z" transform="translate(-9.176 -4)" fill="#91bb37"/>
</svg>
