<svg id="fmd_good_black_24dp_1_" data-name="fmd_good_black_24dp (1)" xmlns="http://www.w3.org/2000/svg" width="24" height="24" viewBox="0 0 24 24">
  <g id="Group_3821" data-name="Group 3821">
    <path id="Path_32026" data-name="Path 32026" d="M0,0H24V24H0Z" fill="none"/>
  </g>
  <path id="Path_32068" data-name="Path 32068" d="M322.313,290.938l-2.062,2.5-1.5,3.125.313,3.063s.625,1.438.813,1.813a18.037,18.037,0,0,0,1.188,2.188c.25.25,2.188,1.5,2.5,1.875s1.375,1.188,1.5,1.375.188.125.313.5.563.5.563.313a30.359,30.359,0,0,1,2.313-2.5,17.835,17.835,0,0,0,1.563-1.562A26.006,26.006,0,0,0,331.25,301c.25-.562.688-1.687.688-1.687a4.48,4.48,0,0,0,.5-1.437,16.48,16.48,0,0,1,0-2.5,4.832,4.832,0,0,0,0-1.437,1.132,1.132,0,0,0-.5-1.062,11.39,11.39,0,0,1-1.812-1.187c-.25-.25-.937-.812-1.125-.75s-3.062,0-3.062,0a10.435,10.435,0,0,0-1.25-.375c-.187,0-1.75-.062-2.062,0A.388.388,0,0,0,322.313,290.938Z" transform="translate(-314 -287.5)" fill="#fff"/>
  <path id="location_on_FILL0_wght300_GRAD0_opsz24" d="M12,11.75a1.751,1.751,0,0,0,1.238-2.988,1.751,1.751,0,0,0-2.476,2.476A1.689,1.689,0,0,0,12,11.75Zm0,8.05a25.157,25.157,0,0,0,4.675-5.263A8.564,8.564,0,0,0,18.25,10.2a6.27,6.27,0,0,0-1.812-4.65A6.058,6.058,0,0,0,12,3.75a6.058,6.058,0,0,0-4.438,1.8A6.27,6.27,0,0,0,5.75,10.2a8.564,8.564,0,0,0,1.575,4.337A25.157,25.157,0,0,0,12,19.8Zm0,2a32.955,32.955,0,0,1-5.825-6.3A9.814,9.814,0,0,1,4.25,10.2,7.505,7.505,0,0,1,6.588,4.412a7.856,7.856,0,0,1,10.825,0A7.507,7.507,0,0,1,19.75,10.2a9.814,9.814,0,0,1-1.925,5.3A32.955,32.955,0,0,1,12,21.8ZM12,10.2Z" transform="translate(-0.25 -0.25)"/>
</svg>
