<svg xmlns="http://www.w3.org/2000/svg" width="110" height="53.653" viewBox="0 0 110 53.653">
  <g id="logo" transform="translate(-110 -379.694)">
    <g id="Group_3010" data-name="Group 3010" transform="translate(110 379.694)">
      <g id="Group_4" data-name="Group 4" transform="translate(0 0)">
        <g id="Group_1" data-name="Group 1" transform="translate(0.305 0)">
          <path id="Path_1" data-name="Path 1" d="M269.919,490.767c1.084.006,2.147,0,3.223.008,0,.071,0,.121,0,.171-.018.726-.034,1.452-.055,2.178a8.441,8.441,0,0,1-.044.863,2.881,2.881,0,0,1-1.086,1.89,5.05,5.05,0,0,1-1.2.711.445.445,0,0,1-.063.017l-.757-1.131.148-.072a3.165,3.165,0,0,0,1.009-.712,1.6,1.6,0,0,0,.395-.773c.013-.067.016-.137.026-.223-.187-.013-.363,0-.538,0s-.363,0-.545.005h-.548C269.889,492.723,269.918,491.758,269.919,490.767Z" transform="translate(-251.543 -490.56)" fill="#e91818"/>
          <path id="Path_2" data-name="Path 2" d="M411.03,528.38a3.574,3.574,0,0,1-.4.05c-.8,0-1.61,0-2.494,0-.048-4.029.023-8.013-.043-12.053l2.468-.638c.058.881.113,1.708.174,2.619a2.479,2.479,0,0,0,.32-.241,6.077,6.077,0,0,1,4.108-1.953,7.077,7.077,0,0,1,2.919.257,4.454,4.454,0,0,1,2.55,1.892,2.416,2.416,0,0,0,.169.211,3.878,3.878,0,0,0,.305-.273,6.429,6.429,0,0,1,4.36-2.09,7.563,7.563,0,0,1,2.635.184,4.646,4.646,0,0,1,3.7,4.531c.021.432.018.866.018,1.3q0,2.774,0,5.549c0,.211,0,.422,0,.67h-2.885c-.009-.212-.026-.42-.026-.627,0-2.047.006-4.093-.008-6.139a5.964,5.964,0,0,0-.135-1.285,2.909,2.909,0,0,0-2.419-2.361,4.455,4.455,0,0,0-3.5.616,2.953,2.953,0,0,0-1.412,2.629c.02,2.164.006,4.329.006,6.494v.673h-2.879c-.012-.209-.033-.415-.033-.621q0-3.04,0-6.08c0-.315.006-.63-.015-.944a2.887,2.887,0,0,0-2.08-2.66,4.319,4.319,0,0,0-4.435,1,2.942,2.942,0,0,0-.969,2.26c.017,2.125.005,4.25,0,6.375Z" transform="translate(-367.92 -511.588)" fill="#2b2a28"/>
          <path id="Path_3" data-name="Path 3" d="M652.311,528.157h-3c-.013-.248-.035-.476-.036-.7,0-2.027.009-4.054-.009-6.08a7.516,7.516,0,0,0-.162-1.577,2.9,2.9,0,0,0-2.069-2.224,5.4,5.4,0,0,0-4.24.324,3.323,3.323,0,0,0-1.975,3.219c.037,2.105.009,4.211.009,6.317v.731c-1.02.032-2,.04-3.042-.011V516.223l2.516-.779c.083.807.16,1.554.241,2.34a1.081,1.081,0,0,0,.216-.126,6.516,6.516,0,0,1,4.244-2.089,8.585,8.585,0,0,1,3.568.223,4.8,4.8,0,0,1,3.769,4.82c.054,2.419.011,4.841.009,7.261A2.332,2.332,0,0,1,652.311,528.157Z" transform="translate(-561.328 -511.338)" fill="#2b2a28"/>
          <path id="Path_4" data-name="Path 4" d="M768.175,524.735H756.539a6.763,6.763,0,0,0,.073.892,3.673,3.673,0,0,0,1.845,2.476,6.5,6.5,0,0,0,3.215.841,23.339,23.339,0,0,0,2.592-.07c.836-.083,1.661-.284,2.575-.447l.481,1.447c-.355.1-.664.211-.982.279a18.962,18.962,0,0,1-6.793.283,9.092,9.092,0,0,1-2.58-.8,5.773,5.773,0,0,1-1.654-9.279,6.611,6.611,0,0,1,2.483-1.653,9.913,9.913,0,0,1,6.478-.259,5.3,5.3,0,0,1,3.924,4.283A4.964,4.964,0,0,1,768.175,524.735Zm-11.628-1.617a86.989,86.989,0,0,0,8.889-.015,6.035,6.035,0,0,0-.052-.625,3.218,3.218,0,0,0-2.266-2.626,5.794,5.794,0,0,0-3.711-.014,4.14,4.14,0,0,0-2.692,2.616A5.957,5.957,0,0,0,756.547,523.117Z" transform="translate(-658.897 -513.51)" fill="#2b2a28"/>
          <path id="Path_5" data-name="Path 5" d="M199.34,500.407v3.468h4.268v1.588h-4.2a4.619,4.619,0,0,0-.063.512q0,3.126,0,6.252c0,.039,0,.079,0,.118a1.9,1.9,0,0,0,2.051,2.078c.508.016,1.018-.05,1.528-.076.116-.006.233,0,.408,0,.046.482.091.962.14,1.478a2.257,2.257,0,0,1-.377.143,9.383,9.383,0,0,1-4.032,0,3.149,3.149,0,0,1-2.607-3.08c-.024-.274-.029-.55-.03-.825q0-2.92,0-5.839v-.692c-.857-.108-1.68,0-2.536-.072v-1.527c.814-.151,1.66.027,2.527-.11v-2.842Z" transform="translate(-187.557 -498.677)" fill="#2b2a28"/>
          <path id="Path_6" data-name="Path 6" d="M298.38,521.219l-.7,1.449c-.737-.181-1.412-.391-2.1-.506a5.778,5.778,0,0,0-2.573.057,3.087,3.087,0,0,0-1,.481,1.231,1.231,0,0,0,.042,2.088,5.755,5.755,0,0,0,1.324.629c.759.268,1.55.445,2.3.729a9.807,9.807,0,0,1,1.91.905,2.764,2.764,0,0,1,.042,4.8,6.689,6.689,0,0,1-3.088,1.075,13.668,13.668,0,0,1-5.658-.44c-.169-.05-.335-.114-.5-.179a1.368,1.368,0,0,1-.2-.138l.657-1.461c1.012.237,1.956.5,2.918.671a5.929,5.929,0,0,0,2.858-.153,3.1,3.1,0,0,0,.845-.4,1.432,1.432,0,0,0,.04-2.4,3.831,3.831,0,0,0-.976-.537c-.605-.227-1.238-.382-1.848-.6-.72-.256-1.446-.508-2.136-.834a4.518,4.518,0,0,1-1.148-.812,2.277,2.277,0,0,1-.382-3.005,3.733,3.733,0,0,1,1.465-1.334,7.019,7.019,0,0,1,2.816-.8,11.17,11.17,0,0,1,4.652.527C298.07,521.076,298.192,521.138,298.38,521.219Z" transform="translate(-266.947 -515.559)" fill="#2b2a28"/>
          <path id="Path_7" data-name="Path 7" d="M587.111,516.6l2.873-.75v12.635h-2.873Z" transform="translate(-518.655 -511.679)" fill="#2b2a28"/>
          <path id="Path_8" data-name="Path 8" d="M157.747,519.221l2.885-.745v12.5h-2.885Z" transform="translate(-157.118 -513.89)" fill="#2b2a28"/>
          <path id="Path_9" data-name="Path 9" d="M584.955,492.22a2.165,2.165,0,0,1-1.326-.4,1.166,1.166,0,0,1-.015-1.944,2.574,2.574,0,0,1,2.768-.041,1.185,1.185,0,0,1-.078,2.049A2.5,2.5,0,0,1,584.955,492.22Z" transform="translate(-515.276 -489.454)" fill="#2b2a28"/>
          <path id="Path_10" data-name="Path 10" d="M155.645,492.3a3.076,3.076,0,0,1-1.307-.445,1.173,1.173,0,0,1-.04-1.987,2.586,2.586,0,0,1,2.73-.043,1.185,1.185,0,0,1-.107,2.081A7.2,7.2,0,0,1,155.645,492.3Z" transform="translate(-153.768 -489.458)" fill="#2b2a28"/>
        </g>
        <g id="Group_2" data-name="Group 2" transform="translate(0 30.57)">
          <path id="Path_11" data-name="Path 11" d="M439.606,696.338c-.085-.35-.148-.633-.222-.914a10.732,10.732,0,0,1-.443-2.666,5.622,5.622,0,0,1,1.8-4.216,8.2,8.2,0,0,1,3.627-2,9.348,9.348,0,0,1,5.521.063,6.893,6.893,0,0,1,4.888,5.742,6.583,6.583,0,0,1,.057,2.4,5.907,5.907,0,0,1-1.882,3.268,8.767,8.767,0,0,1-6,2.378q-7.643.108-15.286.149c-1.986.012-3.974-.007-5.959-.077a15.8,15.8,0,0,1-3.726-.536,3.825,3.825,0,0,1-3-3.2,16.086,16.086,0,0,1-.281-2.573c-.024-2.5.027-5,.024-7.5a1.662,1.662,0,0,1,.585-1.352c.253-.218.505-.439.77-.642.623-.48,1.253-.951,1.88-1.426.4-.307.438-.316,1.032-.221,0,.22,0,.452,0,.683q.02,5.607.04,11.215c0,.786.295,1.238.912,1.4a1.814,1.814,0,0,0,.466.048q7.348,0,14.7,0C439.235,696.369,439.371,696.353,439.606,696.338Zm7.1.573c.274-.023.551-.028.82-.075a5.466,5.466,0,0,0,.8-.208,3.58,3.58,0,0,0,2.585-3.654,3.837,3.837,0,0,0-2.773-3.689,4.669,4.669,0,0,0-4.571,1.2,3.132,3.132,0,0,0-.969,2.27A4.041,4.041,0,0,0,446.709,696.911Z" transform="translate(-376.534 -682.965)" fill="#0d0e10"/>
          <path id="Path_12" data-name="Path 12" d="M156.03,709.908c.038.822.085,1.56.1,2.3.049,1.947.085,3.894.126,5.841,0,.059,0,.118.007.177a3.042,3.042,0,0,0,2.95,3.217,9.931,9.931,0,0,0,4.144-.3,2.716,2.716,0,0,0,2.123-2.474,20.123,20.123,0,0,0,.067-2.293c0-1-.03-2.006-.039-3.008a1.96,1.96,0,0,1,.853-1.654c.6-.467,1.144-1.019,1.7-1.544a2.511,2.511,0,0,1,1.688-.825c-.026.592-.057,1.159-.074,1.725a30.015,30.015,0,0,0-.081,4.359c.013.117.018.236.039.352.09.482.149.573.645.592,1.67.062,3.34.118,5.011.133,1.5.014,2.992.007,4.485-.059,1.609-.071,3.218-.193,4.821-.347,1.2-.115,1.548-.451,1.7-1.639a19.1,19.1,0,0,0,.043-2.114c.014-.842-.012-1.689.071-2.525a1.741,1.741,0,0,1,.483-.98c.723-.719,1.5-1.387,2.274-2.053a2.843,2.843,0,0,1,.763-.44c.476-.2.66-.071.683.439.019.432.018.866.026,1.3.03,1.671.089,3.343.08,5.014a11.162,11.162,0,0,1-.43,3.086,7.733,7.733,0,0,1-.266.781,4.439,4.439,0,0,1-4,2.822c-4.435.462-8.882.27-13.324.312-.807.008-1.614.017-2.42-.006a.725.725,0,0,0-.7.4,18.027,18.027,0,0,1-1.277,1.766,6.833,6.833,0,0,1-3.258,2.143,14.878,14.878,0,0,1-4.755.756,12.243,12.243,0,0,1-5.2-1.145,6.912,6.912,0,0,1-2.011-1.427,3.293,3.293,0,0,1-.941-2.281c-.061-2.221-.183-4.44-.291-6.66a.787.787,0,0,1,.3-.766c1.154-.888,2.287-1.8,3.431-2.7A4.087,4.087,0,0,1,156.03,709.908Z" transform="translate(-151.84 -702.574)" fill="#0d0e10"/>
          <path id="Path_13" data-name="Path 13" d="M652.675,710.2c.015.3.039.509.034.717-.035,1.356-.087,2.711-.112,4.067-.008.45.051.9.069,1.353a.38.38,0,0,0,.4.412c.274.02.548.067.821.065,2.694-.021,5.389-.042,8.083-.08a1.912,1.912,0,0,0,2.049-1.853,10.485,10.485,0,0,0,.031-1.3c0-.629-.021-1.259-.013-1.888a2.1,2.1,0,0,1,.561-1.451,15.85,15.85,0,0,1,3.487-2.887c.244-.145.516-.241.843-.39.014.285.035.475.032.664-.035,1.868-.034,3.738-.128,5.6a21.407,21.407,0,0,1-.418,3.327c-.529,2.511-1.728,3.6-4.282,3.908a38.488,38.488,0,0,1-4,.246c-2.242.032-4.484-.007-6.727-.016h-.67a2.234,2.234,0,0,0-.133.394,4.965,4.965,0,0,1-2.137,3.4,9.332,9.332,0,0,1-4.243,1.651,12.2,12.2,0,0,1-1.408.118c-.478.016-.721-.124-.824-.585a9.6,9.6,0,0,1-.2-1.689c-.021-.488.045-.98.075-1.515.416-.1.837-.188,1.245-.314a15.08,15.08,0,0,0,1.611-.557,2.087,2.087,0,0,0,1.266-1.727,10.058,10.058,0,0,0,.1-1.29c.012-1.219.013-2.439,0-3.658a2.067,2.067,0,0,1,.868-1.769c.693-.546,1.315-1.18,1.974-1.769a11.622,11.622,0,0,1,.95-.791A5.843,5.843,0,0,1,652.675,710.2Z" transform="translate(-566.071 -703.175)" fill="#0d0e10"/>
          <path id="Path_14" data-name="Path 14" d="M829.385,693.118V708.8a16.6,16.6,0,0,1-3.4.066c-.13-.4-.168-14.98-.033-15.753Z" transform="translate(-719.385 -691.514)" fill="#0d0e10"/>
          <path id="Path_15" data-name="Path 15" d="M663.493,698.525v-2.87h3.183a3.885,3.885,0,0,1,.042.424c-.01.726-.043,1.453-.037,2.179a2.976,2.976,0,0,1-1.505,2.69c-.277.175-.577.314-.9.485l-.753-1.073c.7-.451,1.491-.8,1.559-1.836Z" transform="translate(-582.666 -693.65)" fill="#e91818"/>
          <path id="Path_16" data-name="Path 16" d="M756.051,683.213c.138.012.276.013.41.036a1.623,1.623,0,0,1,1.333,1.383,1.579,1.579,0,0,1-1.083,1.518,1.778,1.778,0,0,1-1.82-.311,1.321,1.321,0,0,1-.5-1.407,1.564,1.564,0,0,1,1.256-1.177A2.813,2.813,0,0,1,756.051,683.213Z" transform="translate(-659.163 -683.174)" fill="#0d0e10"/>
          <path id="Path_17" data-name="Path 17" d="M781.344,683.245a1.606,1.606,0,0,1,1.686,1.333,1.633,1.633,0,0,1-1.852,1.714,1.041,1.041,0,0,1-.115-.025,1.578,1.578,0,0,1-1.441-1.648A1.631,1.631,0,0,1,781.344,683.245Z" transform="translate(-680.444 -683.201)" fill="#0d0e10"/>
          <path id="Path_18" data-name="Path 18" d="M201.7,718.74a1.555,1.555,0,0,1-1.692-1.733,1.692,1.692,0,0,1,1.951-1.3,1.607,1.607,0,0,1,1.454,1.648A1.639,1.639,0,0,1,201.7,718.74Z" transform="translate(-192.39 -710.516)" fill="#0d0e10"/>
          <path id="Path_19" data-name="Path 19" d="M351.719,804.148a3.212,3.212,0,0,1-.469-.06,1.514,1.514,0,0,1-1.181-1.656,1.686,1.686,0,0,1,1.849-1.284,2.27,2.27,0,0,1,.345.07,1.5,1.5,0,0,1,1.156,1.562,1.56,1.56,0,0,1-1.352,1.345C351.971,804.139,351.872,804.139,351.719,804.148Z" transform="translate(-318.737 -782.469)" fill="#0d0e10"/>
          <path id="Path_20" data-name="Path 20" d="M326.609,804.13a1.61,1.61,0,0,1-1.688-1.249,1.588,1.588,0,0,1,1.783-1.752c.058.005.116.021.173.031a1.572,1.572,0,0,1,1.4,1.554A1.619,1.619,0,0,1,326.609,804.13Z" transform="translate(-297.563 -782.457)" fill="#0d0e10"/>
        </g>
      </g>
    </g>
  </g>
</svg>
