<svg xmlns="http://www.w3.org/2000/svg" width="43.642" height="44.4" viewBox="0 0 43.642 44.4">
  <g id="_00-15-check_-machine_-scale_-test_-weight" data-name="00-15-check,-machine,-scale,-test,-weight" transform="translate(-5.316 -5)">
    <path id="Shape" d="M27.147,5a11.678,11.678,0,0,1,10,5.636q3.446.59,7.36,1.548a5.84,5.84,0,0,1,4.422,6.276l-2.659,25.7A5.86,5.86,0,0,1,40.458,49.4H13.836a5.841,5.841,0,0,1-5.811-5.241L5.366,18.46c-.3-2.9.718-5.369,4.422-6.276q3.7-.907,7.36-1.548A11.678,11.678,0,0,1,27.147,5ZM15.985,13.22q-3.917.812-5.641,1.234A3.517,3.517,0,0,0,7.69,18.219l2.659,25.7a3.546,3.546,0,0,0,3.487,3.145H40.458a3.577,3.577,0,0,0,3.487-3.145l2.659-25.7a3.505,3.505,0,0,0-2.653-3.765q-2.309-.565-5.641-1.233a11.279,11.279,0,0,1,.522,3.463,11.684,11.684,0,1,1-23.368,0,11.218,11.218,0,0,1,.522-3.464ZM27.147,7.337a9.347,9.347,0,1,0,9.347,9.347,9.374,9.374,0,0,0-9.347-9.347Zm0,2.337a1.2,1.2,0,0,1,1.168,1.168v5.842a1.168,1.168,0,0,1-1.168,1.168,1.151,1.151,0,0,1-1.168-1.168V10.842A1.168,1.168,0,0,1,27.147,9.674Z" transform="translate(0 0)" fill="#91bb37"/>
  </g>
</svg>
