<svg xmlns="http://www.w3.org/2000/svg" width="55" height="55" viewBox="0 0 55 55">
  <g id="man" transform="translate(-1 -1)">
    <g id="Group_46206" data-name="Group 46206" transform="translate(14.306 17.883)">
      <path id="Path_83469" data-name="Path 83469" d="M30.194,38.633c-3.016,0-4.081-.71-5.056-1.419a3.112,3.112,0,0,0-.71-.444,12.355,12.355,0,0,1-5.5-8.25C17.685,28.076,16,26.745,16,23.552c0-2.484,1.153-3.282,1.242-3.371a.9.9,0,1,1,.976,1.508c-.444.266-.532.444-.532,1.952,0,3.016,1.863,3.371,2.04,3.371a1.083,1.083,0,0,1,.8.71c.532,2.484,1.685,5.855,4.7,7.629a7.8,7.8,0,0,1,.887.532c.887.621,1.6,1.065,3.992,1.065,2.484,0,3.1-.444,3.992-1.065a7.8,7.8,0,0,1,.887-.532c3.016-1.774,4.258-5.056,4.7-7.629a.943.943,0,0,1,.8-.71c.177,0,2.04-.355,2.04-3.371,0-1.508-.532-1.952-.532-1.952a.8.8,0,0,1-.177-1.242.8.8,0,0,1,1.242-.177A4.159,4.159,0,0,1,44.3,23.641c0,3.194-1.685,4.524-2.927,4.968-.887,3.815-2.75,6.653-5.5,8.25a8.181,8.181,0,0,1-.71.444c-.887.621-1.952,1.331-4.968,1.331Z" transform="translate(-16 -20.031)" fill="#91bb37"/>
    </g>
    <g id="Group_46207" data-name="Group 46207" transform="translate(15.214 9.838)">
      <path id="Path_83470" data-name="Path 83470" d="M17.89,20.754a.852.852,0,0,1-.8-.532.88.88,0,0,1,.444-1.153C19.841,18,21.616,15.7,23.3,11.528A.938.938,0,0,1,23.922,11a.715.715,0,0,1,.8.266c2.573,2.4,6.21,1.863,8.6,1.508a16.936,16.936,0,0,1,1.774-.177c3.548,0,4.968,2.573,5.944,4.435.621,1.242,1.065,2.04,1.685,2.04a.887.887,0,0,1,0,1.774c-1.685,0-2.484-1.508-3.282-2.927-.976-1.774-1.863-3.46-4.347-3.46a13.245,13.245,0,0,0-1.508.177c-2.306.355-6.121.887-9.137-1.153-1.774,3.9-3.726,6.21-6.21,7.363a.533.533,0,0,0-.355-.089Z" transform="translate(-17.023 -10.962)" fill="#91bb37"/>
    </g>
    <g id="Group_46208" data-name="Group 46208" transform="translate(34.71 31.605)">
      <path id="Path_83471" data-name="Path 83471" d="M59.4,59.9a.838.838,0,0,1-.887-.887c0-4.879,0-8.782-6.919-10.468C45.831,47.21,39,44.548,39,40.024V36.387a.887.887,0,0,1,1.774,0v3.637c0,2.573,4.081,5.056,11.177,6.831,8.339,1.952,8.339,7.363,8.339,12.065A.912.912,0,0,1,59.4,59.9Z" transform="translate(-39 -35.5)" fill="#91bb37"/>
    </g>
    <g id="Group_46209" data-name="Group 46209" transform="translate(1 31.605)">
      <path id="Path_83472" data-name="Path 83472" d="M1.887,59.008H1c0-4.79,0-10.2,8.339-12.153,7.1-1.685,11.177-4.169,11.177-6.831V36.387a.887.887,0,0,1,1.774,0v3.637c0,4.524-6.831,7.185-12.6,8.516-6.919,1.685-6.919,5.589-6.919,10.379Z" transform="translate(-1 -35.5)" fill="#91bb37"/>
    </g>
    <g id="Group_46210" data-name="Group 46210" transform="translate(14.968 41.137)">
      <path id="Path_83473" data-name="Path 83473" d="M30.278,54.012a17.5,17.5,0,0,1-13.306-6.3A.88.88,0,0,1,18.3,46.56a15.469,15.469,0,0,0,23.952,0,.88.88,0,1,1,1.331,1.153A17.5,17.5,0,0,1,30.278,54.012Z" transform="translate(-16.745 -46.245)" fill="#91bb37"/>
    </g>
    <g id="Group_46211" data-name="Group 46211" transform="translate(14.306 1)">
      <path id="Path_83474" data-name="Path 83474" d="M17.508,19.9a.776.776,0,0,1-.8-.532C16,17.5,16,16.879,16,12.532a8.674,8.674,0,0,1,4.7-7.806C22.565,2.153,25.492,1,30.194,1a16.4,16.4,0,0,1,6.387,1.242,16.15,16.15,0,0,0,5.855.532.879.879,0,0,1,.976.71A5.233,5.233,0,0,1,42.7,7.21,13.111,13.111,0,0,1,44.3,13.6a16.589,16.589,0,0,1-.71,5.766.9.9,0,1,1-1.685-.621,14.154,14.154,0,0,0,.621-5.145,11.167,11.167,0,0,0-1.6-5.855.933.933,0,0,1,0-1.153,3.348,3.348,0,0,0,.71-2.04,21.05,21.05,0,0,1-5.589-.621c-.089,0-.089,0-.177-.089a14.093,14.093,0,0,0-5.677-1.065c-5.234,0-7.008,1.508-8.161,3.194a.886.886,0,0,1-.444.355,6.7,6.7,0,0,0-3.815,6.21c0,4.258,0,4.613.621,6.121a.923.923,0,0,1-.532,1.153.533.533,0,0,1-.355.089Z" transform="translate(-16 -1)" fill="#91bb37"/>
    </g>
  </g>
</svg>
