<svg xmlns="http://www.w3.org/2000/svg" width="46.057" height="47.689" viewBox="0 0 46.057 47.689">
  <g id="muscle" transform="translate(0.001 -0.474)">
    <path id="Path_84574" data-name="Path 84574" d="M44.621,53.194a21.765,21.765,0,0,1-11.939-2.23.774.774,0,0,0-.588-.075c-.084.022-8.423,2.258-15.139.767-4.187-.931-8.136-3.88-11.02-6.034-.387-.289-.754-.563-1.1-.815a8.806,8.806,0,0,0-1.879-.883c-.3-.113-.7-.268-.789-.323a.3.3,0,0,1-.117-.245v-1.8c.037-1.423,6-23.311,6.926-26.1a.6.6,0,0,1,.177-.128l11.8-5.391,3.816,4.968a.684.684,0,0,1-.042.855l-3.77,4.227a.672.672,0,0,1-.92.092l-1.525-1.406a.78.78,0,0,0-.671-.175.813.813,0,0,0-.563.429,4.232,4.232,0,0,1-2.46.567l-.384-.039a.776.776,0,0,0-.692,1.246c.327.423.582.763.727.958l.755,12.828a5.646,5.646,0,0,1-1,2.443.776.776,0,0,0,.233,1.516c.879,0,1.627-1.156,2.227-3.412a9.49,9.49,0,0,1,11.975.1c1.959,1.966,2.081,3.273,2.085,3.331a.776.776,0,0,0,1.551-.017c0-.178-.064-1.709-2.072-3.92a9.893,9.893,0,0,1,6.422-3.96,11.257,11.257,0,0,1,7.568,2.276.775.775,0,0,0,.981-1.2,12.648,12.648,0,0,0-8.723-2.616A11.337,11.337,0,0,0,29.05,33.5a11.025,11.025,0,0,0-12.347-.36l-.694-11.8a.768.768,0,0,0-.113-.36,5.1,5.1,0,0,0,2.12-.658l1,.921a2.222,2.222,0,0,0,3.1-.223L25.888,16.8a2.248,2.248,0,0,0,.126-2.817l-4.2-5.473a.776.776,0,0,0-.937-.233L8.519,13.919a1.887,1.887,0,0,0-1,1.022C7.08,16.259.5,39.727.5,41.555v1.8a1.849,1.849,0,0,0,.711,1.466,4.9,4.9,0,0,0,1.192.551,8.447,8.447,0,0,1,1.517.686c.341.249.7.52,1.086.806,3,2.238,7.1,5.3,11.613,6.305,6.423,1.428,13.964-.3,15.58-.705a23.25,23.25,0,0,0,10.224,2.4,21.428,21.428,0,0,0,2.37-.131.775.775,0,1,0-.171-1.541Zm0,0" transform="translate(0 -7.202)" fill="#9ec648" stroke="#9ec648" stroke-width="1"/>
    <path id="Path_84575" data-name="Path 84575" d="M420.742,385.721a.776.776,0,0,0-1.547.085c0,.518.382,2.272,5.3,3.092a.817.817,0,0,0,.128.01.776.776,0,0,0,.127-1.54c-3.44-.573-3.964-1.544-4.01-1.647Zm0,0" transform="translate(-379.918 -349.127)" fill="#9ec648" stroke="#9ec648" stroke-width="1"/>
    <path id="Path_84579" data-name="Path 84579" d="M117.11,382.107c-10.159,2.175-14.5-4.775-14.685-5.071a.776.776,0,0,0-1.329.8,13.3,13.3,0,0,0,3.925,3.837,15.04,15.04,0,0,0,8.341,2.4,19.42,19.42,0,0,0,4.073-.448.776.776,0,0,0-.325-1.517Zm0,0" transform="translate(-91.179 -341.532)" fill="#9ec648" stroke="#9ec648" stroke-width="1"/>
  </g>
</svg>
