<svg xmlns="http://www.w3.org/2000/svg" width="77.642" height="53.055" viewBox="0 0 77.642 53.055">
  <g id="outline" transform="translate(-15.997 -88)">
    <path id="Path_83483" data-name="Path 83483" d="M19.879,141.055H89.756a3.887,3.887,0,0,0,3.882-3.816,3.956,3.956,0,0,0-3.97-3.949H73.137l9.97-11.782a26.845,26.845,0,0,0,2.15-2.926c.069-.084,1.492-2.594,2.015-3.813l1.176-2.744a10.429,10.429,0,0,0,.529-6.6l-1.275-5.1,1.646.549a1.294,1.294,0,0,0,1.324-.312l1.294-1.294a1.294,1.294,0,0,0,.378-.915V94.47a1.294,1.294,0,0,0-.715-1.158l-2.4-1.2-2.964-2.964A3.921,3.921,0,0,0,83.492,88h-.166a3.913,3.913,0,0,0-2.918,1.3,5.457,5.457,0,0,0-3.1,1.156,5.39,5.39,0,0,0-1.731,2.486l-1.285,3.7a1.294,1.294,0,0,0,.026.89l1.2,3v2.986a1.294,1.294,0,0,0,1.294,1.294H79.4v1.466l-1.262.18h0l-4.71.673a5.1,5.1,0,0,0-4.38,5.05V117.4l-2.845,4.742L53.483,109.422a6.867,6.867,0,0,0-10.443.864L31.9,125.876l-3.5,2.332-4.959,1.24a1.294,1.294,0,0,0-.98,1.255v2.588h-2.5A3.956,3.956,0,0,0,16,137.239a3.887,3.887,0,0,0,3.882,3.816ZM79.4,92.186v1.748l-.966-.966A2.867,2.867,0,0,1,79.4,92.186ZM78.11,102.234v-1.941a1.294,1.294,0,0,0-.093-.481L76.9,97.018l.482-1.446L79.4,97.594v4.641Zm.473,9.912.782-3.128.007-.03.019-.084,1.49-.213a1.294,1.294,0,0,0,1.111-1.281V91.922a1.335,1.335,0,0,1,1.334-1.334h.166a1.324,1.324,0,0,1,.943.39l3.113,3.113a1.291,1.291,0,0,0,.336.243l1.873.936v2.546l-.349.35-.743-.248-2.449-2.4a1.294,1.294,0,0,0-2.147,1.29l2.4,9.246a7.827,7.827,0,0,1-.4,4.954l-1.176,2.743a24.276,24.276,0,0,1-1.375,2.719H81.958a3.479,3.479,0,0,1-3.375-4.323Zm-7.128,6.282a1.3,1.3,0,0,0,.184-.666v-5.571A2.514,2.514,0,0,1,73.8,109.7l2.831-.4-.555,2.219a6.063,6.063,0,0,0,5.692,7.532c-.207.266-.417.53-.634.786l-9.967,11.779-.234-1.4a12.633,12.633,0,0,0-2.858-6.15Zm-26.31-6.638a4.279,4.279,0,0,1,6.507-.538l13.9,13.9a10.069,10.069,0,0,1,2.828,5.5l.441,2.647H61.935l-12.511-17.54a1.294,1.294,0,0,0-2.186.052l-3.8,6.334L36.7,128.873l-2.192-2.192Zm13.554,21.5H37.2l.63-1.889,7.548-7.548a1.3,1.3,0,0,0,.194-.249l2.83-4.717Zm-33.645-1.578,4.2-1.049a1.292,1.292,0,0,0,.4-.179l3-2,2.567,2.566-.746,2.238H25.055Zm-5.176,4.166H89.756a1.294,1.294,0,1,1,0,2.588H19.879a1.294,1.294,0,1,1,0-2.588Z" transform="translate(0)" fill="#91bb37"/>
    <path id="Path_83484" data-name="Path 83484" d="M425.605,327.118l-1.294,1.51a1.294,1.294,0,1,0,1.965,1.684l1.294-1.51a1.294,1.294,0,0,0-1.965-1.684Z" transform="translate(-342.008 -200.061)" fill="#91bb37"/>
    <path id="Path_83485" data-name="Path 83485" d="M452.193,280.451l-3.882,4.529a1.294,1.294,0,0,0,1.965,1.684l3.882-4.529a1.294,1.294,0,0,0-1.965-1.685Z" transform="translate(-362.125 -160.943)" fill="#91bb37"/>
  </g>
</svg>
