<svg xmlns="http://www.w3.org/2000/svg" width="235" height="27" viewBox="0 0 235 27">
  <g id="Group_3004" data-name="Group 3004" transform="translate(50 -569)">
    <g id="Group_2996" data-name="Group 2996" transform="translate(-173.5 91)">
      <g id="Group_2994" data-name="Group 2994" transform="translate(152.5 14)">
        <g id="Group_2856" data-name="Group 2856" transform="translate(155.853 463.5)">
          <g id="Rectangle_1586" data-name="Rectangle 1586" transform="translate(0.147 0.5)" fill="#fff" stroke="#eee" stroke-width="1">
            <rect width="50" height="27" rx="4" stroke="none"/>
            <rect x="0.5" y="0.5" width="49" height="26" rx="3.5" fill="none"/>
          </g>
          <g id="Group_108" data-name="Group 108" transform="translate(7.279 8.088)">
            <g id="Group_107" data-name="Group 107" transform="translate(0 0)">
              <path id="Path_31882" data-name="Path 31882" d="M-3154.12-3071.336c-.829,0-1.658,0-2.487,0-.139,0-.19-.035-.216-.174-.083-.452-.187-.9-.273-1.353-.02-.107-.052-.146-.167-.146q-1.713.006-3.428,0c-.113,0-.149.045-.183.139-.164.467-.335.932-.5,1.4-.026.071-.041.136-.15.136-.953-.005-1.906,0-2.859,0a.207.207,0,0,1-.048-.019c.043-.107.086-.216.131-.322q2.051-4.885,4.1-9.772a1.449,1.449,0,0,1,1.459-.99c.716,0,1.433,0,2.149-.005.128,0,.17.04.195.159q.516,2.495,1.04,4.989.606,2.91,1.213,5.819c0,.014.021.025.031.037Zm-4.342-8.1-1.529,4.161c.779,0,1.53,0,2.281,0,.116,0,.1-.047.083-.127-.155-.739-.306-1.477-.458-2.217C-3158.208-3078.208-3158.332-3078.8-3158.462-3079.433Z" transform="translate(3189.645 3082.648)" fill="#004890"/>
              <path id="Path_31883" data-name="Path 31883" d="M-3453.6-3089.867c.282.047.565.09.846.142a6.356,6.356,0,0,1,1.023.285c.068.025.128.037.11.141-.124.727-.24,1.456-.36,2.184-.006.034-.018.068-.03.112a5.524,5.524,0,0,0-1.239-.43,4.356,4.356,0,0,0-2,.011,1.247,1.247,0,0,0-.6.355.672.672,0,0,0-.007.958,2.928,2.928,0,0,0,.79.565,17.651,17.651,0,0,1,1.627.9,2.934,2.934,0,0,1,1.339,1.786,3.273,3.273,0,0,1-1.092,3.261,4.738,4.738,0,0,1-2.5,1.1,8.955,8.955,0,0,1-4.355-.4c-.152-.053-.191-.114-.162-.276.128-.72.244-1.443.352-2.167.021-.136.064-.116.154-.073a6.327,6.327,0,0,0,1.925.642,4.426,4.426,0,0,0,1.832-.05,1.49,1.49,0,0,0,.658-.368.819.819,0,0,0,.024-1.177,3.427,3.427,0,0,0-1.008-.682,9.686,9.686,0,0,1-1.471-.851,2.847,2.847,0,0,1-1.248-1.785,3.087,3.087,0,0,1,.891-2.774,4.694,4.694,0,0,1,2.473-1.265,5.9,5.9,0,0,0,.755-.14Z" transform="translate(3477.437 3089.867)" fill="#004891"/>
              <path id="Path_31884" data-name="Path 31884" d="M-3980.918-3076.572c.168.54.228,1.1.365,1.656.067-.047.071-.122.094-.183q1.337-3.588,2.668-7.178a.2.2,0,0,1,.225-.16c.9.006,1.8,0,2.7,0h.178c-.154.38-.3.74-.445,1.1q-2,4.913-4,9.828a.231.231,0,0,1-.256.175q-1.34-.012-2.681,0a.192.192,0,0,1-.227-.171q-1.248-4.719-2.5-9.437c0-.011-.007-.022-.01-.034.047.023.1.043.141.071a9.577,9.577,0,0,1,1.777,1.372A8.724,8.724,0,0,1-3980.918-3076.572Z" transform="translate(3987.834 3082.639)" fill="#004890"/>
              <path id="Path_31885" data-name="Path 31885" d="M-3631.852-3071.328c-.421,0-.841-.007-1.261,0-.149,0-.174-.042-.152-.177.151-.9.3-1.805.442-2.708q.364-2.245.728-4.49.29-1.791.576-3.583c.017-.109.051-.158.177-.157q1.288.01,2.575,0c.126,0,.154.023.132.156q-.647,3.948-1.284,7.9c-.157.972-.315,1.945-.467,2.919-.018.115-.063.141-.171.14C-3630.988-3071.331-3631.42-3071.328-3631.852-3071.328Z" transform="translate(3645.799 3082.639)" fill="#004890"/>
              <path id="Path_31886" data-name="Path 31886" d="M-4089.511-3076.547a8.713,8.713,0,0,0-1.98-2.959,9.578,9.578,0,0,0-1.777-1.372c-.044-.027-.094-.047-.141-.07a7.99,7.99,0,0,0-1.421-.712,11.883,11.883,0,0,0-1.478-.494c-.056-.015-.14-.008-.116-.114.02-.085.037-.144.154-.144,1.545.007,3.089,0,4.634.015a1.134,1.134,0,0,1,1.206,1.042c.3,1.534.6,3.066.906,4.6A.429.429,0,0,1-4089.511-3076.547Z" transform="translate(4096.428 3082.614)" fill="#f8920f"/>
            </g>
          </g>
        </g>
        <g id="Group_2857" data-name="Group 2857" transform="translate(100.235 463.5)">
          <g id="Rectangle_1586-2" data-name="Rectangle 1586" transform="translate(-0.235 0.5)" fill="#fff" stroke="#eee" stroke-width="1">
            <rect width="50" height="27" rx="4" stroke="none"/>
            <rect x="0.5" y="0.5" width="49" height="26" rx="3.5" fill="none"/>
          </g>
          <g id="Group_109" data-name="Group 109" transform="translate(11.26 2.643)">
            <path id="Path_31887" data-name="Path 31887" d="M-2358.245-3270.165h1.112c.01.028.035.021.055.022a8.249,8.249,0,0,1,1.121.153,8.535,8.535,0,0,1,3.578,1.664c-.173.152-.352.3-.519.461a9.662,9.662,0,0,0-.688.725,8.711,8.711,0,0,0-1.092,1.618,8.648,8.648,0,0,0-.651,1.646,8.683,8.683,0,0,0-.319,2.04,8.452,8.452,0,0,0,.082,1.484,8.579,8.579,0,0,0,.3,1.354,8.565,8.565,0,0,0,.8,1.828,8.737,8.737,0,0,0,1.147,1.538,10.446,10.446,0,0,0,.942.87.233.233,0,0,1-.023.021,8.436,8.436,0,0,1-7.448,1.542,8.365,8.365,0,0,1-5.189-3.821,8.351,8.351,0,0,1-1.221-3.5,3.411,3.411,0,0,0-.06-.5v-1.024c.029-.017.019-.045.02-.068a7.948,7.948,0,0,1,.255-1.587,8.53,8.53,0,0,1,4.011-5.286,8.349,8.349,0,0,1,3.317-1.11A2.428,2.428,0,0,0-2358.245-3270.165Z" transform="translate(2366.315 3270.165)" fill="#da0018"/>
            <path id="Path_31888" data-name="Path 31888" d="M-1739.549-3270.165h1.047c.021.03.053.019.08.02a8.073,8.073,0,0,1,1.324.191,8.385,8.385,0,0,1,4.6,2.754,8.409,8.409,0,0,1,1.987,7.2,8.28,8.28,0,0,1-2.662,4.819,8.484,8.484,0,0,1-5.634,2.26,8.25,8.25,0,0,1-2.287-.258,8.5,8.5,0,0,1-3.216-1.585c.155-.13.317-.253.465-.392a8.954,8.954,0,0,0,1.342-1.551,8.708,8.708,0,0,0,.918-1.774,8.647,8.647,0,0,0,.548-2.655,8.406,8.406,0,0,0-.057-1.443,8.8,8.8,0,0,0-.368-1.659,8.579,8.579,0,0,0-.757-1.671,8.723,8.723,0,0,0-1.148-1.539,11.113,11.113,0,0,0-.939-.875,7.92,7.92,0,0,1,1.112-.745,8.547,8.547,0,0,1,3.175-1.036A2.327,2.327,0,0,0-1739.549-3270.165Z" transform="translate(1758.284 3270.165)" fill="#f68a0d"/>
            <path id="Path_31889" data-name="Path 31889" d="M-1888.478-3188.333l.043,0a11.17,11.17,0,0,1,.939.876,8.692,8.692,0,0,1,1.148,1.538,8.606,8.606,0,0,1,.758,1.672,8.773,8.773,0,0,1,.367,1.66,8.363,8.363,0,0,1,.057,1.443,8.648,8.648,0,0,1-.548,2.656,8.74,8.74,0,0,1-.918,1.773,8.977,8.977,0,0,1-1.342,1.551c-.148.138-.31.262-.465.392l-.034,0a10.308,10.308,0,0,1-.942-.87,8.744,8.744,0,0,1-1.148-1.538,8.548,8.548,0,0,1-.8-1.828,8.647,8.647,0,0,1-.3-1.353,8.383,8.383,0,0,1-.082-1.483,8.674,8.674,0,0,1,.319-2.04,8.631,8.631,0,0,1,.651-1.645,8.661,8.661,0,0,1,1.092-1.618,9.68,9.68,0,0,1,.689-.726C-1888.829-3188.031-1888.651-3188.18-1888.478-3188.333Z" transform="translate(1902.415 3190.171)" fill="#e54911"/>
            <path id="Path_31890" data-name="Path 31890" d="M-2302.957-2412.925a.9.9,0,0,1,1.436.075.942.942,0,0,1,.536-.366,1.153,1.153,0,0,1,.56,0,.8.8,0,0,1,.628.79c.009.486,0,.973,0,1.46,0,.058-.017.074-.074.072a3.486,3.486,0,0,0-.381,0c-.094.007-.1-.032-.1-.111,0-.421,0-.843-.007-1.264a.46.46,0,0,0-.486-.5.5.5,0,0,0-.541.5c-.014.417-.012.836-.008,1.253,0,.1-.025.125-.121.117a2.083,2.083,0,0,0-.3,0c-.073,0-.09-.021-.089-.091,0-.392,0-.785,0-1.177a.849.849,0,0,0-.008-.152.47.47,0,0,0-.532-.451.507.507,0,0,0-.507.551c-.006.407,0,.814,0,1.221,0,.084-.023.1-.1.1-.112-.007-.225,0-.338,0-.052,0-.068-.014-.068-.067q0-1.085,0-2.169c0-.056.015-.076.073-.074.12,0,.24,0,.36,0,.054,0,.08.011.074.071S-2302.957-2413.013-2302.957-2412.925Z" transform="translate(2304.876 2432.247)" fill="#09090b"/>
            <path id="Path_31891" data-name="Path 31891" d="M-1287.4-2450.646c0-.373,0-.72,0-1.068,0-.093.017-.132.117-.122a1.643,1.643,0,0,0,.294,0c.089-.007.108.026.108.11,0,.792,0,1.584,0,2.377,0,.218,0,.436,0,.654,0,.061-.016.083-.079.081-.12,0-.24,0-.36,0-.064,0-.083-.02-.078-.081s0-.114,0-.187a.945.945,0,0,1-1.064.257,1.077,1.077,0,0,1-.767-.842,1.2,1.2,0,0,1,.644-1.4A1,1,0,0,1-1287.4-2450.646Zm.048.874a.69.69,0,0,0-.982-.674.755.755,0,0,0-.364.915.689.689,0,0,0,.822.481A.71.71,0,0,0-1287.354-2449.773Z" transform="translate(1313.468 2469.966)" fill="#0c0c0d"/>
            <path id="Path_31892" data-name="Path 31892" d="M-1493.069-2412.953a.153.153,0,0,0,.006-.021c.008-.241.008-.241.255-.241s.26,0,.26.257c0,.65,0,1.3,0,1.95,0,.08-.019.108-.1.1a3.115,3.115,0,0,0-.338,0c-.064,0-.083-.021-.078-.081s0-.114,0-.182a.968.968,0,0,1-1.153.219,1.085,1.085,0,0,1-.7-.976,1.183,1.183,0,0,1,.416-1.079A1.054,1.054,0,0,1-1493.069-2412.953Zm.054.894a.691.691,0,0,0-.987-.677.755.755,0,0,0-.353.929.684.684,0,0,0,.8.468A.7.7,0,0,0-1493.015-2412.059Z" transform="translate(1514.504 2432.258)" fill="#0c0b0d"/>
            <path id="Path_31893" data-name="Path 31893" d="M-2118.321-2411.26a1.038,1.038,0,0,1-1.32.151,1.225,1.225,0,0,1-.534-1.225,1.142,1.142,0,0,1,.859-.972.957.957,0,0,1,.981.274.33.33,0,0,0,.012-.169c-.007-.079.025-.1.1-.1.113.006.226,0,.338,0,.06,0,.082.014.082.078q0,1.079,0,2.158c0,.058-.017.076-.074.074-.116,0-.233-.006-.349,0-.08.005-.1-.024-.094-.1C-2118.317-2411.133-2118.321-2411.184-2118.321-2411.26Zm.023-.952a.658.658,0,0,0-.375-.594.673.673,0,0,0-.729.06.781.781,0,0,0-.242.845.686.686,0,0,0,.812.481A.735.735,0,0,0-2118.3-2412.212Z" transform="translate(2125.72 2432.338)" fill="#0b0b0c"/>
            <path id="Path_31894" data-name="Path 31894" d="M-1789.258-2411.924c-.25,0-.5,0-.752,0-.1,0-.1.026-.071.1a.674.674,0,0,0,.781.436,1.077,1.077,0,0,0,.491-.189c.048-.033.075-.04.108.016.052.087.111.17.168.254.019.028.035.049,0,.079a1.356,1.356,0,0,1-1.87-.191,1.291,1.291,0,0,1,.308-1.749,1.069,1.069,0,0,1,1.683.84c.008.1,0,.2.014.3s-.026.1-.1.1C-1788.756-2411.926-1789.007-2411.924-1789.258-2411.924Zm-.229-.436c.17,0,.341,0,.511,0,.083,0,.086-.023.068-.094a.544.544,0,0,0-.565-.454.6.6,0,0,0-.6.474c-.014.06,0,.075.061.073C-1789.835-2412.361-1789.661-2412.359-1789.487-2412.359Z" transform="translate(1803.554 2432.338)" fill="#09090b"/>
            <path id="Path_31895" data-name="Path 31895" d="M-1993.173-2411.461a1.359,1.359,0,0,0,.835.236.689.689,0,0,0,.342-.092.214.214,0,0,0,.113-.2c-.005-.083-.07-.121-.138-.153a1.594,1.594,0,0,0-.5-.1,1.464,1.464,0,0,1-.428-.116.639.639,0,0,1-.118-1.094,1.006,1.006,0,0,1,.5-.194,1.863,1.863,0,0,1,1.038.159c.091.044.114.085.052.176s-.082.229-.162.274-.19-.063-.292-.09a1.252,1.252,0,0,0-.6-.056.412.412,0,0,0-.169.07.179.179,0,0,0,.043.331,1.942,1.942,0,0,0,.48.08,1.29,1.29,0,0,1,.483.153.635.635,0,0,1,.079,1.048,1.082,1.082,0,0,1-.589.228,1.812,1.812,0,0,1-1.132-.219c-.067-.039-.087-.068-.036-.138C-1993.3-2411.253-1993.238-2411.358-1993.173-2411.461Z" transform="translate(2001.775 2432.184)" fill="#0a0a0c"/>
            <path id="Path_31896" data-name="Path 31896" d="M-1887.285-2440.4c0-.216,0-.394,0-.572,0-.064-.012-.092-.083-.087-.1.007-.2,0-.294,0-.071,0-.087-.022-.083-.087a2.508,2.508,0,0,0,0-.294c0-.072.024-.085.088-.083.1,0,.2,0,.3,0,.053,0,.068-.015.067-.067,0-.181,0-.363,0-.545,0-.066.015-.089.085-.086.116.005.232,0,.349,0,.065,0,.08.021.078.081,0,.178,0,.356,0,.534,0,.068.019.085.085.084.218,0,.436,0,.654,0,.059,0,.087.013.082.078a2.745,2.745,0,0,1-.014.377c-.12,0-.239.006-.358.007s-.247,0-.37,0c-.044,0-.078,0-.077.061.007.353-.014.705.011,1.057a.29.29,0,0,0,.332.293.764.764,0,0,0,.365-.09c.052-.03.067-.013.082.034.032.1.063.207.1.308.019.049.011.07-.034.092a1.257,1.257,0,0,1-.866.1.626.626,0,0,1-.479-.554A5.02,5.02,0,0,1-1887.285-2440.4Z" transform="translate(1898.497 2460.558)" fill="#09090b"/>
            <path id="Path_31897" data-name="Path 31897" d="M-1594.573-2411.722c.072.121.141.244.216.363.029.046,0,.063-.027.085a1.119,1.119,0,0,1-.539.213,1.368,1.368,0,0,1-.93-.178,1.151,1.151,0,0,1-.521-1.081,1.108,1.108,0,0,1,.819-1.069,1.329,1.329,0,0,1,1.156.154c.06.041.066.074.025.126a.272.272,0,0,0-.018.027c-.055.094-.089.224-.17.271s-.176-.077-.271-.114a.722.722,0,0,0-1.011.483.728.728,0,0,0,.448.9.847.847,0,0,0,.68-.092C-1594.669-2411.66-1594.624-2411.691-1594.573-2411.722Z" transform="translate(1613.674 2432.446)" fill="#0a0a0c"/>
            <path id="Path_31898" data-name="Path 31898" d="M-1667.451-2412.973a.81.81,0,0,1,.862-.316c.067.008.069.041.052.094-.035.106-.073.212-.1.32-.017.071-.043.085-.112.068a.75.75,0,0,0-.291-.029.477.477,0,0,0-.41.53q-.005.621,0,1.243c0,.09-.013.132-.116.121a2.435,2.435,0,0,0-.316,0c-.058,0-.084-.009-.084-.075q0-1.079,0-2.159c0-.066.026-.077.084-.075.116,0,.233.005.349,0,.073,0,.087.026.082.089S-1667.451-2413.06-1667.451-2412.973Z" transform="translate(1683.655 2432.297)" fill="#100f11"/>
            <path id="Path_31899" data-name="Path 31899" d="M-1359.143-2413.049a.776.776,0,0,1,.783-.3c.133.011.137.015.1.135-.028.093-.059.186-.084.28-.017.065-.039.1-.118.073a.721.721,0,0,0-.171-.03.456.456,0,0,0-.52.445c-.021.21-.01.421-.012.631,0,.243,0,.486,0,.729,0,.063-.01.092-.082.088-.119-.007-.24,0-.359,0-.05,0-.07-.012-.07-.066q0-1.089,0-2.178c0-.055.021-.066.07-.065.116,0,.233,0,.349,0,.069,0,.1.014.092.089a1.181,1.181,0,0,0,0,.15Z" transform="translate(1382.291 2432.346)" fill="#09090b"/>
          </g>
        </g>
        <g id="Group_2858" data-name="Group 2858" transform="translate(35.338 463.5)">
          <g id="Rectangle_1586-3" data-name="Rectangle 1586" transform="translate(-0.338 0.5)" fill="#fff" stroke="#eee" stroke-width="1">
            <rect width="58" height="27" rx="4" stroke="none"/>
            <rect x="0.5" y="0.5" width="57" height="26" rx="3.5" fill="none"/>
          </g>
          <g id="Group_1078" data-name="Group 1078" transform="translate(7.279 6.666)">
            <g id="Group_106" data-name="Group 106">
              <path id="Path_31873" data-name="Path 31873" d="M239.075-3072.262a2.517,2.517,0,0,0-.14.459,2.2,2.2,0,0,1-1.916,1.512,3.708,3.708,0,0,1-1.731-.2.908.908,0,0,0-.485.037,3.677,3.677,0,0,1-.664.059q-3.157,0-6.313,0c-.183,0-.2-.057-.166-.209.047-.229.076-.462.107-.694.012-.09.045-.124.144-.123.717.006,1.434,0,2.151,0a1.387,1.387,0,0,1,.346.07,12.935,12.935,0,0,0-.082-2.075.971.971,0,0,0-.687-.794,1.2,1.2,0,0,0-.332-.03c-.359,0-.717,0-1.076,0-.107,0-.147-.021-.128-.136.044-.266.077-.533.114-.8.008-.057.025-.1.1-.1a9.14,9.14,0,0,1,1.828.072,2.028,2.028,0,0,1,1.593,1.7,9.738,9.738,0,0,1,.072,1.825c.006.263,0,.263.269.263.711,0,1.423-.008,2.134.005.179,0,.225-.082.243-.22a1.86,1.86,0,0,0,.006-.229q0-.968,0-1.936a1.265,1.265,0,0,1,.937-1.328,3.307,3.307,0,0,1,1.94-.12,2.216,2.216,0,0,1,1.7,1.875c.006.031-.012.073.037.086Zm-3.28-.413h.011c0,.339,0,.68,0,1.019,0,.091.02.13.121.145a4.993,4.993,0,0,0,.77.064.894.894,0,0,0,.94-.687,2.441,2.441,0,0,0,.03-1.3.823.823,0,0,0-.853-.708,2.518,2.518,0,0,0-.784.081c-.258.074-.246.071-.236.333C235.805-3073.378,235.8-3073.027,235.8-3072.675Z" transform="translate(-196.746 3075.338)" fill="#1f2124"/>
              <path id="Path_31874" data-name="Path 31874" d="M432.882-2810.775c-.421-.072-.844-.135-1.263-.219a1.5,1.5,0,0,0-.552.067,3.463,3.463,0,0,1-1.483-.018,1.289,1.289,0,0,1-1-1.249,1.28,1.28,0,0,1,.915-1.361,3.28,3.28,0,0,1,1.019-.17c.311-.006.623,0,.934,0,.088,0,.119-.018.122-.115.019-.562-.219-.807-.794-.793a5.138,5.138,0,0,0-1.683.331c-.149.056-.21.042-.227-.129-.023-.245-.067-.487-.106-.73-.011-.071.006-.1.079-.123a6.749,6.749,0,0,1,2.307-.412,2.62,2.62,0,0,1,.876.172,1.325,1.325,0,0,1,.856,1.11c0,.032-.01.073.035.089v.071c-.065.049-.034.119-.034.179Q432.881-2812.425,432.882-2810.775Zm-1.894-2.118a1.771,1.771,0,0,0-.709.08.55.55,0,0,0-.319.573.5.5,0,0,0,.421.454,2.556,2.556,0,0,0,1.155-.145c.067-.015.05-.07.051-.113,0-.246,0-.493,0-.739,0-.1-.04-.115-.125-.112C431.318-2812.889,431.171-2812.893,430.988-2812.893Z" transform="translate(-390.59 2824.866)" fill="#202124"/>
              <path id="Path_31875" data-name="Path 31875" d="M550.189-2771.254q0-1.651,0-3.3c0-.06-.031-.13.034-.179v3.486Z" transform="translate(-507.897 2785.345)" fill="#484749"/>
              <path id="Path_31876" data-name="Path 31876" d="M-638.774-3075.1q4.373,0,8.746,0c.173,0,.211.045.211.213q-.01,2.773,0,5.545c0,.157-.036.206-.2.206q-8.764-.007-17.528,0c-.162,0-.191-.048-.19-.2q.007-2.781,0-5.563c0-.155.033-.2.2-.2Q-643.156-3075.094-638.774-3075.1Z" transform="translate(647.738 3075.111)" fill="#008bce"/>
              <path id="Path_31877" data-name="Path 31877" d="M-638.8-2838.821q-4.372,0-8.744,0c-.162,0-.2-.043-.2-.2q.009-2.79,0-5.58c0-.149.04-.181.184-.181q8.771.006,17.541,0c.155,0,.194.036.194.193q-.009,2.789,0,5.579c0,.161-.047.19-.2.189Q-634.413-2838.824-638.8-2838.821Z" transform="translate(647.746 2852.918)" fill="#7faa2d"/>
              <path id="Path_31878" data-name="Path 31878" d="M-74.3-3067.991c-.932-.023-1.956.024-2.978-.027a1.99,1.99,0,0,1-1.971-1.86,5.069,5.069,0,0,1,.1-1.972,2.07,2.07,0,0,1,2.04-1.553c.582-.008,1.164,0,1.746-.007.116,0,.135.031.115.14-.047.254-.085.509-.116.764-.012.1-.048.123-.143.121-.376-.005-.752,0-1.129,0a1.01,1.01,0,0,0-1.114.862,4.125,4.125,0,0,0-.031,1.626.947.947,0,0,0,1.023.868c.858.019,1.716.014,2.574.018q1.4,0,2.8.005a1.841,1.841,0,0,0,.3-.024.636.636,0,0,0,.565-.7.635.635,0,0,0-.664-.611c-.558-.012-1.116.029-1.674-.026a1.377,1.377,0,0,1-1.356-1.2,1.489,1.489,0,0,1,1.042-1.762,3.665,3.665,0,0,1,1.163-.158c.964,0,1.928,0,2.892,0,.134,0,.175.028.149.165-.045.236-.081.474-.109.712-.015.122-.059.16-.188.16-.923-.007-1.846,0-2.768,0a1.5,1.5,0,0,0-.368.026.534.534,0,0,0-.462.621.563.563,0,0,0,.586.557c.452.007.905,0,1.358,0a1.863,1.863,0,0,1,1.22.371,1.48,1.48,0,0,1,.554,1.167,1.487,1.487,0,0,1-1.4,1.662,6.144,6.144,0,0,1-.878.062H-74.3Z" transform="translate(99.369 3073.558)" fill="#202224"/>
              <path id="Path_31879" data-name="Path 31879" d="M-79-2812.863c0-.581,0-1.162,0-1.743a.714.714,0,0,1,.588-.819,4.438,4.438,0,0,1,2.41-.146.777.777,0,0,1,.322.135c.141.12.262.074.411.017a3.19,3.19,0,0,1,2.1-.134,1.322,1.322,0,0,1,.986,1.38c.029,1.061.01,2.124.013,3.186,0,.075-.02.1-.1.1-.4,0-.8-.006-1.2,0-.128,0-.105-.075-.105-.148q0-1.39,0-2.781a1.278,1.278,0,0,0-.021-.279.5.5,0,0,0-.495-.421,1.687,1.687,0,0,0-.773.133c-.074.031-.1.056-.061.137a.694.694,0,0,1,.043.311c0,.968,0,1.936,0,2.9,0,.116-.031.146-.145.143-.364-.007-.729-.009-1.093,0-.13,0-.168-.026-.167-.162.007-.88,0-1.76,0-2.64,0-.041,0-.082,0-.123.02-.684-.383-.756-.845-.693s-.449.073-.449.524c0,.968,0,1.936,0,2.9,0,.162-.046.194-.2.189-.364-.011-.729-.009-1.093,0-.116,0-.148-.03-.147-.146C-79-2811.642-79-2812.252-79-2812.863Z" transform="translate(99.083 2824.844)" fill="#202224"/>
              <path id="Path_31880" data-name="Path 31880" d="M284.495-2872.123q0,1.381,0,2.763c0,.082-.008.164-.01.246a.636.636,0,0,1-.466.614,3.709,3.709,0,0,1-1.025.23,4.209,4.209,0,0,1-1.435-.065,2.027,2.027,0,0,1-1.526-1.854,3.707,3.707,0,0,1,.17-1.646,1.792,1.792,0,0,1,1.639-1.206,2.823,2.823,0,0,1,1.076.13c.116.039.16.024.158-.115-.008-.586,0-1.173-.006-1.76,0-.125.033-.174.157-.193.376-.056.753-.117,1.126-.192.133-.027.145.014.145.125C284.493-2874.07,284.495-2873.1,284.495-2872.123Zm-1.423,1.511v-.844c0-.4,0-.4-.392-.485a.9.9,0,0,0-1.221.722,2.524,2.524,0,0,0,.023,1.22.912.912,0,0,0,.967.728c.166,0,.325-.047.488-.062.123-.011.139-.065.137-.168C283.069-2869.872,283.072-2870.242,283.072-2870.611Z" transform="translate(-247.258 2882.244)" fill="#202225"/>
              <path id="Path_31881" data-name="Path 31881" d="M140.219-2812.567c0,.546,0,1.092,0,1.637,0,.134-.022.169-.163.139-.4-.084-.794-.153-1.193-.221a1.5,1.5,0,0,0-.483.074,3.632,3.632,0,0,1-1.312.026,1.313,1.313,0,0,1-1.181-1.315,1.325,1.325,0,0,1,1.126-1.4,6.258,6.258,0,0,1,1.542-.107c.363,0,.363,0,.321-.364a.546.546,0,0,0-.51-.517,4.282,4.282,0,0,0-1.747.232c-.133.04-.292.158-.39.093-.076-.051-.053-.249-.073-.382-.025-.162-.043-.325-.074-.486-.016-.079-.005-.111.078-.137a6.714,6.714,0,0,1,2.307-.41,2.805,2.805,0,0,1,.794.141,1.389,1.389,0,0,1,.953,1.376c0,.024,0,.047,0,.071q0,.775,0,1.549Zm-1.92-.333a2.223,2.223,0,0,0-.646.051.551.551,0,0,0-.389.562.5.5,0,0,0,.434.5,2.554,2.554,0,0,0,1.137-.145c.078-.018.057-.078.057-.126,0-.24-.006-.48,0-.72,0-.09-.022-.125-.117-.121C138.627-2812.894,138.48-2812.9,138.3-2812.9Z" transform="translate(-108.226 2824.873)" fill="#202124"/>
            </g>
          </g>
        </g>
        <g id="Group_3960" data-name="Group 3960" transform="translate(-28.662 463.5)">
          <g id="Rectangle_1586-4" data-name="Rectangle 1586" transform="translate(-0.338 0.5)" fill="#fff" stroke="#eee" stroke-width="1">
            <rect width="58" height="27" rx="4" stroke="none"/>
            <rect x="0.5" y="0.5" width="57" height="26" rx="3.5" fill="none"/>
          </g>
          <path id="apple-pay-svgrepo-com" d="M6.58,11.261a2.2,2.2,0,0,1-1.77.845,2.549,2.549,0,0,1,.633-1.859A2.657,2.657,0,0,1,7.2,9.334a2.721,2.721,0,0,1-.621,1.927Zm.615.979c-.978-.06-1.817.561-2.281.561s-1.184-.532-1.957-.514A2.863,2.863,0,0,0,.509,13.794c-1.061,1.833-.276,4.547.744,6.041.5.738,1.095,1.547,1.881,1.525.744-.03,1.043-.492,1.94-.492s1.166.492,1.958.474c.813-.012,1.329-.738,1.827-1.476a6.5,6.5,0,0,0,.815-1.7,2.683,2.683,0,0,1-1.588-2.438,2.749,2.749,0,0,1,1.283-2.292,2.758,2.758,0,0,0-2.174-1.194Zm5.644-2.064V21.265h1.7V17.474H16.9a3.5,3.5,0,0,0,3.662-3.651,3.46,3.46,0,0,0-3.6-3.645Zm1.7,1.454h1.963a2.056,2.056,0,0,1,2.321,2.2,2.065,2.065,0,0,1-2.332,2.2H14.544Zm9.124,9.717a2.811,2.811,0,0,0,2.515-1.413h.036v1.331h1.575V15.744c0-1.593-1.265-2.629-3.217-2.629-1.8,0-3.141,1.049-3.188,2.484h1.529a1.5,1.5,0,0,1,1.612-1.131c1.043,0,1.624.492,1.624,1.4v.609l-2.121.129c-1.981.123-3.048.937-3.048,2.362a2.419,2.419,0,0,0,2.683,2.385Zm.464-1.313c-.909,0-1.489-.44-1.489-1.113,0-.7.557-1.108,1.617-1.174l1.894-.117v.627a1.858,1.858,0,0,1-2.029,1.777ZM29.9,24.283c1.657,0,2.438-.645,3.118-2.584L36,13.225H34.276l-2,6.545h-.036l-2-6.545H28.451l2.884,8.069-.153.492a1.361,1.361,0,0,1-1.436,1.148c-.135,0-.393-.017-.5-.028v1.331a4.709,4.709,0,0,0,.645.041Z" transform="translate(10.658 -2.808)" fill="#222"/>
        </g>
      </g>
    </g>
  </g>
</svg>
