<svg xmlns="http://www.w3.org/2000/svg" width="33" height="33" viewBox="0 0 33 33">
  <g id="Group_4133" data-name="Group 4133" transform="translate(-98.396 -7.5)">
    <circle id="Ellipse_54" data-name="Ellipse 54" cx="16.5" cy="16.5" r="16.5" transform="translate(98.396 7.5)" fill="#fff"/>
    <g id="account_circle_black_24dp_5_" data-name="account_circle_black_24dp (5)" transform="translate(103.396 11.5)">
      <g id="Group_3819" data-name="Group 3819">
        <rect id="Rectangle_1964" data-name="Rectangle 1964" width="24" height="24" fill="none"/>
      </g>
      <g id="Group_3820" data-name="Group 3820">
        <path id="Path_32022" data-name="Path 32022" d="M12,2A10,10,0,1,0,22,12,10,10,0,0,0,12,2Zm0,4A3.5,3.5,0,1,1,8.5,9.5,3.5,3.5,0,0,1,12,6Zm0,14a8.008,8.008,0,0,1-6.14-2.88,9.951,9.951,0,0,1,12.28,0A8.008,8.008,0,0,1,12,20Z" fill="#8b8b8b"/>
      </g>
    </g>
  </g>
</svg>
