<svg id="Basket" xmlns="http://www.w3.org/2000/svg" width="42" height="42" viewBox="0 0 42 42">
  <rect id="Rectangle_1709" data-name="Rectangle 1709" width="42" height="42" rx="21" fill="#ddd"/>
  <g id="person_black_24dp" transform="translate(9.298 9.296)">
    <path id="Path_4312" data-name="Path 4312" d="M0,0H22.724V22.724H0Z" fill="none"/>
    <path id="Path_4313" data-name="Path 4313" d="M11.23,11.23A3.615,3.615,0,1,0,7.615,7.615,3.614,3.614,0,0,0,11.23,11.23Zm0,1.808C8.817,13.038,4,14.249,4,16.653V18.46H18.46V16.653C18.46,14.249,13.643,13.038,11.23,13.038Z" transform="translate(0.132 0.132)" fill="#0d0e10"/>
  </g>
  <path id="Path_32074" data-name="Path 32074" d="M325.2,80.569V79.2l.275-1.262.823-.494,1.7-.659,2.745-.659h3.348l1.537.659,1.921.659.769.494v2.635Z" transform="translate(-311.229 -53.377)" fill="#fff"/>
  <path id="Path_32073" data-name="Path 32073" d="M329.272,69.89l.329-1.427.988-.6,1.482-.329h1.372l.659.659.439,1.208v1.647l-.439,1.1-1.043.6-.6.22h-.933l-.6-.22-1.318-.878-.329-.823Z" transform="translate(-311.296 -53.237)" fill="#fff" stroke="#707070" stroke-width="1"/>
  <path id="person_FILL0_wght300_GRAD0_opsz24_3_" data-name="person_FILL0_wght300_GRAD0_opsz24 (3)" d="M11.878,11.586a3.3,3.3,0,0,1-2.435-1.021A3.328,3.328,0,0,1,8.435,8.143,3.443,3.443,0,0,1,11.878,4.7a3.443,3.443,0,0,1,3.443,3.443,3.328,3.328,0,0,1-1.008,2.422A3.3,3.3,0,0,1,11.878,11.586ZM4.5,19.062V16.873a2.418,2.418,0,0,1,.393-1.328,2.715,2.715,0,0,1,1.057-.959,14.124,14.124,0,0,1,2.939-1.07,12.714,12.714,0,0,1,5.976,0,14.13,14.13,0,0,1,2.938,1.07,2.715,2.715,0,0,1,1.057.959,2.418,2.418,0,0,1,.393,1.328v2.189Zm1.476-1.476h11.8v-.713a.923.923,0,0,0-.172-.541,1.451,1.451,0,0,0-.467-.418,13.765,13.765,0,0,0-2.594-.947,10.908,10.908,0,0,0-5.338,0,13.765,13.765,0,0,0-2.594.947,1.451,1.451,0,0,0-.467.418.923.923,0,0,0-.172.541Zm5.9-7.476a1.973,1.973,0,0,0,1.967-1.967,1.965,1.965,0,0,0-3.356-1.39,1.958,1.958,0,0,0,0,2.779,1.892,1.892,0,0,0,1.389.578ZM11.878,8.143ZM11.878,17.587Z" transform="translate(8.782 8.777)"/>
</svg>
