<svg xmlns="http://www.w3.org/2000/svg" width="55" height="55" viewBox="0 0 55 55">
  <g id="Basket" transform="translate(0.5 0.5)">
    <rect id="Rectangle_1709" data-name="Rectangle 1709" width="55" height="55" rx="27.5" transform="translate(-0.5 -0.5)" fill="#f4f9f9"/>
    <g id="vuesax_outline_user" data-name="vuesax/outline/user" transform="translate(-92.5 -172.5)">
      <g id="user">
        <path id="Vector" d="M5.75,11.5A5.75,5.75,0,1,1,11.5,5.75,5.757,5.757,0,0,1,5.75,11.5Zm0-10A4.25,4.25,0,1,0,10,5.75,4.259,4.259,0,0,0,5.75,1.5Z" transform="translate(114.25 189.25)" fill="#292d32"/>
        <path id="Vector-2" data-name="Vector" d="M17.93,8.5a.755.755,0,0,1-.75-.75c0-3.45-3.52-6.25-7.84-6.25S1.5,4.3,1.5,7.75a.755.755,0,0,1-.75.75A.755.755,0,0,1,0,7.75C0,3.48,4.19,0,9.34,0s9.34,3.48,9.34,7.75A.755.755,0,0,1,17.93,8.5Z" transform="translate(110.66 202.25)" fill="#292d32"/>
        <path id="Vector-3" data-name="Vector" d="M0,0H24V24H0Z" transform="translate(108 188)" fill="none" opacity="0"/>
      </g>
    </g>
  </g>
</svg>
