<svg xmlns="http://www.w3.org/2000/svg" width="19" height="19" viewBox="0 0 19 19">
  <path id="local_post_office_FILL0_wght300_GRAD0_opsz24" d="M15.5,18.5v2.125a.9.9,0,0,1-.875.875H3.375a.9.9,0,0,1-.875-.875v-7.25a.9.9,0,0,1,.875-.875H6.5V8A5.307,5.307,0,0,1,8.1,4.1,5.307,5.307,0,0,1,12,2.5h4a5.307,5.307,0,0,1,3.9,1.6A5.307,5.307,0,0,1,21.5,8V21.5H20v-3Zm0-1.5H20V8a3.852,3.852,0,0,0-1.175-2.825A3.852,3.852,0,0,0,16,4H12A3.852,3.852,0,0,0,9.175,5.175,3.852,3.852,0,0,0,8,8v4.5h6.625a.9.9,0,0,1,.875.875ZM10.25,9.75V8.25h7.5v1.5ZM9,16.85,14,14H4Zm0,1.375-5-2.85V20H14V15.375ZM4,14v0Z" transform="translate(-2.5 -2.5)"/>
</svg>
