<svg xmlns="http://www.w3.org/2000/svg" width="26" height="26" viewBox="0 0 26 26">
  <path id="reload" d="M12.934,652.362c-5.929,0-10.9,4.214-11.357,9.7H3.1c.456-4.468,4.621-8.068,9.831-8.068a9.743,9.743,0,0,1,9.553,6.639l-3.9-1.121-.393,1.573,6.152,1.771L26,656.245l-1.465-.422-.874,3.5a11.391,11.391,0,0,0-10.728-6.964ZM1.648,667.871,0,674.479l1.465.422.874-3.5a11.392,11.392,0,0,0,10.728,6.964c5.929,0,10.9-4.214,11.357-9.7H22.9c-.456,4.468-4.621,8.067-9.831,8.067a9.743,9.743,0,0,1-9.553-6.639l3.9,1.121.393-1.573-6.152-1.771Z" transform="translate(0 -652.362)"/>
</svg>
