<svg xmlns="http://www.w3.org/2000/svg" width="17" height="19.7" viewBox="0 0 17 19.7">
  <path id="replay_FILL0_wght300_GRAD0_opsz24" d="M12,21.5a8.145,8.145,0,0,1-3.312-.675,8.649,8.649,0,0,1-4.513-4.513A8.145,8.145,0,0,1,3.5,13H5a6.751,6.751,0,0,0,2.038,4.962A6.751,6.751,0,0,0,12,20a6.751,6.751,0,0,0,4.962-2.038A6.751,6.751,0,0,0,19,13a6.957,6.957,0,0,0-7-7h-.275l1.6,1.6-1.05,1.075L8.85,5.25,12.3,1.8l1.05,1.1L11.725,4.5H12a8.145,8.145,0,0,1,3.312.675,8.649,8.649,0,0,1,4.513,4.513,8.463,8.463,0,0,1,0,6.624,8.649,8.649,0,0,1-4.513,4.513A8.145,8.145,0,0,1,12,21.5Z" transform="translate(-3.5 -1.8)"/>
</svg>
