<svg id="Layer_2" data-name="Layer 2" xmlns="http://www.w3.org/2000/svg" width="20" height="20" viewBox="0 0 20 20">
  <g id="refresh">
    <rect id="Rectangle_1653" data-name="Rectangle 1653" width="20" height="20" opacity="0"/>
    <path id="Path_3899" data-name="Path 3899" d="M16.464,11.11a.778.778,0,0,0-.973.506,5.557,5.557,0,0,1-5.347,3.828A5.525,5.525,0,0,1,4.557,10,5.525,5.525,0,0,1,10.145,4.55a5.651,5.651,0,0,1,3.619,1.3l-1.689-.28a.78.78,0,1,0-.249,1.541l3.3.545h.132a.778.778,0,0,0,.265-.047.257.257,0,0,0,.078-.047.607.607,0,0,0,.156-.086l.07-.086c0-.039.07-.07.1-.117s0-.078.039-.109a1.042,1.042,0,0,0,.054-.14L16.6,3.912a.792.792,0,0,0-1.557-.3l-.21,1.128a7.169,7.169,0,0,0-4.693-1.751A7.082,7.082,0,0,0,3,10a7.082,7.082,0,0,0,7.145,7,7.1,7.1,0,0,0,6.864-4.918.778.778,0,0,0-.545-.973Z" transform="translate(0 0)"/>
  </g>
</svg>
