<svg xmlns="http://www.w3.org/2000/svg" width="30" height="30" viewBox="0 0 30 30">
  <g id="Group_4155" data-name="Group 4155" transform="translate(-334 -41)">
    <circle id="Ellipse_220" data-name="Ellipse 220" cx="15" cy="15" r="15" transform="translate(334 41)" fill="#fff"/>
    <g id="vuesax_outline_arrow-right" data-name="vuesax/outline/arrow-right" transform="translate(39 -206)">
      <g id="arrow-right" transform="translate(300 252)">
        <path id="Vector" d="M.623,14.448a.618.618,0,0,1-.442-.183.629.629,0,0,1,0-.883L5.615,7.948a1.026,1.026,0,0,0,0-1.45L.181,1.065A.625.625,0,0,1,1.065.181L6.5,5.615a2.27,2.27,0,0,1,.667,1.608A2.236,2.236,0,0,1,6.5,8.831L1.065,14.265A.655.655,0,0,1,.623,14.448Z" transform="translate(6.802 2.777)" fill="#292d32"/>
        <path id="Vector-2" data-name="Vector" d="M0,0H20V20H0Z" fill="none" opacity="0"/>
      </g>
    </g>
  </g>
</svg>
