<svg xmlns="http://www.w3.org/2000/svg" width="78.98" height="158.934" viewBox="0 0 78.98 158.934">
  <g id="Group_1256" data-name="Group 1256" transform="translate(-983.474 -411.004)">
    <g id="Group_1196" data-name="Group 1196" transform="translate(983.981 416.594)">
      <g id="_4JNxgm" data-name="4JNxgm" transform="translate(0)">
        <g id="Group_1197" data-name="Group 1197" transform="translate(0)">
          <path id="Path_5993" data-name="Path 5993" d="M-830.4,827.824a.578.578,0,0,0,.01.167c1.593.348,3.156.6,4.676,1.042a18.586,18.586,0,0,1,9.351,6.806c3.627,4.638,5.6,10.2,6.582,16.247.741,4.57,1.2,9.2,1.754,13.815a70.1,70.1,0,0,0,3.068,15.22,40.506,40.506,0,0,0,4.588,8.793,49.074,49.074,0,0,1,7.419,17.684c1.4,7.059,1.353,14.015-1.542,20.617a29.917,29.917,0,0,1-12.06,14.353,18.371,18.371,0,0,1-15.478,1.791,19.242,19.242,0,0,1-5.241-2.408,5.08,5.08,0,0,0-6.133-.024c-4.177,2.737-8.742,3.452-13.424,3.324a18.921,18.921,0,0,1-11.412-4.578,31.1,31.1,0,0,1-9.473-13.552A37.019,37.019,0,0,1-869.9,910.8a43.009,43.009,0,0,1,3.349-13.768,41.83,41.83,0,0,1,3.824-6.656c1.338-1.993,2.673-4,3.856-6.116a31.018,31.018,0,0,0,3.035-9.631c.8-4.362,1.417-8.769,2.119-13.155a95.912,95.912,0,0,1,4.412-18,30.837,30.837,0,0,1,4.921-9.027,16.5,16.5,0,0,1,9.905-6.01c.18-.035.359-.075.515-.1m-.129,2.134c.071.035.034,0,0,0a.934.934,0,0,0-.245.01,14.894,14.894,0,0,0-8.644,5.217,29.916,29.916,0,0,0-5.045,9.516,106.966,106.966,0,0,0-4.35,19.136c-.627,4.157-1.316,8.3-2.1,12.425a33.928,33.928,0,0,1-5.9,13.533,51.327,51.327,0,0,0-4.258,7,36.925,36.925,0,0,0-3.532,13.97,34.771,34.771,0,0,0,1.763,14.187,29.344,29.344,0,0,0,9.631,13.9,17.347,17.347,0,0,0,9.847,3.865,22.321,22.321,0,0,0,13.4-3.434,5.669,5.669,0,0,1,6.036-.225c1.642.854,3.268,1.779,4.964,2.455a16.121,16.121,0,0,0,8.854,1.056,19.985,19.985,0,0,0,10.292-5.272,30.71,30.71,0,0,0,7.976-12.181,29.793,29.793,0,0,0,1.32-13.863,44.559,44.559,0,0,0-6.572-18.836c-1.468-2.326-2.931-4.675-4.222-7.137a44.017,44.017,0,0,1-4.22-14.646c-.708-5.211-1.2-10.462-1.888-15.678a42.875,42.875,0,0,0-3.542-13.118c-2.986-6.193-7.177-10.566-13.379-11.822-.853-.173-1.719-.253-2.55-.375-.276,1.083.4,2.588-1.156,2.666a2.66,2.66,0,0,1-1.826-.306c-.4-.355-.428-1.276-.643-2.036Z" transform="translate(870.049 -827.824)" fill="#91bb37" stroke="rgba(255,255,255,0.17)" stroke-width="1"/>
        </g>
      </g>
    </g>
    <path id="Path_5995" data-name="Path 5995" d="M1666.274,1026.267c0-.683.117-1.427.158-2.112a18.3,18.3,0,0,0-.161-1.846c-.112-2.761.226-5.718.165-8.577a74.741,74.741,0,0,0-.325-9.233c-.207-1.386-.706-2.792-.946-4.17-.81-4.673-.779-10.361-1.355-15.061-.9-7.376-1.844-12.068-7.137-15-1.882-1.041-6.886-1.6-7.83-3.9a8.7,8.7,0,0,1-.478-3.7,11.342,11.342,0,0,0,1.581-3.808c.76-.064.606-1.526.716-1.9s.72-2.534.526-2.834a.243.243,0,0,0-.424-.009s.42-3.96-.386-6.265a6.685,6.685,0,0,0-3.051-3.536,6.856,6.856,0,0,0-8.765,2.033,8.668,8.668,0,0,0-1.285,4.936,22.386,22.386,0,0,0,.1,2.834.249.249,0,0,0-.214-.12.252.252,0,0,0-.21.129c-.2.3.414,2.464.526,2.834s-.043,1.836.716,1.9a11.339,11.339,0,0,0,1.581,3.808,8.677,8.677,0,0,1-.541,3.7c-.941,2.3-5.882,2.857-7.764,3.9-5.293,2.928-6.234,7.621-7.137,15-.575,4.7-.545,10.388-1.355,15.062-.239,1.379-.739,2.784-.945,4.17a75.22,75.22,0,0,0-.325,9.233c-.058,2.858.278,5.816.165,8.577a18.435,18.435,0,0,0-.161,1.846c.045.685.155,1.428.159,2.112.01,1.962-.662,4.266-.409,6.163a10.208,10.208,0,0,0,2.038,4.756c.81.76,2.491,1.962,3.327,2.014a1.443,1.443,0,0,0,.068-1.143c-.317-.726-1.393-1.273-1.675-1.82a5.073,5.073,0,0,1-.364-1.888,4.478,4.478,0,0,1,0-1.719c.078-.252.309-.952.612-.952a1.26,1.26,0,0,1,.5.724c.065.549.027,1.159.068,1.7.051.671.435,2.036,1.041,2.137.475.081.5-.081.611-.322s-.136-1.271-.046-1.622a3.853,3.853,0,0,0-.068-1.322c-.159-.809.058-1.844-.046-2.71a7.183,7.183,0,0,0-.928-2.8,6.593,6.593,0,0,1-.864-2.012,6.512,6.512,0,0,1,.068-2.919,105.161,105.161,0,0,0,2.636-10.682c.54-3.62,1.326-7.323,1.725-10.914.077-.7.345-2.262.463-3.875a9.318,9.318,0,0,0,.221,1.782c.208.89.749,1.553.93,2.313.415,1.749-1.514,6.5-2.1,10.441a30.321,30.321,0,0,0-.334,8.014c-.05,1.421-1.022,3.812-1.146,5.773-.443,6.956-.55,9.963.372,15.181.676,3.822,1.669,7.634,2.4,11.4a19.974,19.974,0,0,1,.1,4.467c-.052,1.345.126,2.719.051,4.037-.147,2.586-1.006,5.195-.971,7.821.077,5.758,1.44,11.81,2.192,17.586.208,1.6.928,3.724.565,5.065a27.438,27.438,0,0,1-1.841,3.744c-.409.867-1.519,1.442-2.225,1.966-.447.332-.844.779-1.26,1.144a5.41,5.41,0,0,0-.99.871c-.26.426-.075.623-.026.628-.259.258-.252.726-.029.756-.14.417.074.663.3.614a.479.479,0,0,0,.07.472.379.379,0,0,0,.418.129c.175.715,1.08.559,1.526.308.067.787,1.052.958,1.6.85a3.805,3.805,0,0,0,1.813-.808c.231-.2.534-.777.668-.9.423-.393,1.047-.587,1.472-1.008a6.883,6.883,0,0,0,.768-1.457,2.282,2.282,0,0,1,1.314-.993,2.316,2.316,0,0,0,1.891-1.166,4.807,4.807,0,0,0,.033-2.619,8.42,8.42,0,0,1-.35-1.8,5.34,5.34,0,0,0,.069-1.276c-.082-.617-.362-1.084-.441-1.553-.129-.751.885-6.665,1.239-8.759a65.818,65.818,0,0,0,1.1-8.269,37.01,37.01,0,0,0-.158-5.208,14.058,14.058,0,0,1-.2-2.852c.282-2.6,1.63-5.127,1.958-7.763.318-2.552.269-5.222.47-7.786.23-2.941.376-5.667.793-8.6.244-1.71.581-4.363.935-8.608a1.975,1.975,0,0,0,.244.031h.007a1.819,1.819,0,0,0,.213-.031c.35,4.244.69,6.9.935,8.607.418,2.936.564,5.664.794,8.6.2,2.565.152,5.234.47,7.786.329,2.635,1.677,5.164,1.958,7.763a14.04,14.04,0,0,1-.2,2.852,37.066,37.066,0,0,0-.158,5.208,65.844,65.844,0,0,0,1.1,8.269c.354,2.093,1.368,8.007,1.24,8.759-.079.469-.359.936-.441,1.553a5.347,5.347,0,0,0,.069,1.276,8.44,8.44,0,0,1-.351,1.8,4.8,4.8,0,0,0,.033,2.619,2.316,2.316,0,0,0,1.892,1.166,2.283,2.283,0,0,1,1.314.993,6.948,6.948,0,0,0,.768,1.457c.425.421,1.049.615,1.472,1.008.134.125.438.7.668.9a3.805,3.805,0,0,0,1.812.807c.547.108,1.532-.064,1.6-.849.447.251,1.354.407,1.527-.308a.379.379,0,0,0,.418-.129.479.479,0,0,0,.07-.472c.234.049.445-.2.305-.614.223-.03.231-.5-.029-.756.05-.006.234-.2-.025-.629a5.4,5.4,0,0,0-.99-.871c-.417-.366-.813-.812-1.26-1.145-.7-.524-1.817-1.1-2.224-1.966a27.333,27.333,0,0,1-1.841-3.744c-.364-1.34.357-3.469.565-5.065.751-5.776,2.115-11.828,2.192-17.586.035-2.626-.824-5.235-.971-7.821-.075-1.318.1-2.691.051-4.037a19.973,19.973,0,0,1,.1-4.467c.735-3.769,1.728-7.58,2.4-11.4.922-5.217.815-8.224.372-15.181-.124-1.96-1.1-4.352-1.146-5.773a30.348,30.348,0,0,0-.334-8.014c-.584-3.942-2.513-8.695-2.1-10.441.18-.76.722-1.423.93-2.313a9.327,9.327,0,0,0,.221-1.782c.117,1.61.386,3.176.463,3.875.4,3.591,1.186,7.3,1.725,10.914a105.1,105.1,0,0,0,2.636,10.682,6.512,6.512,0,0,1,.068,2.919,6.6,6.6,0,0,1-.864,2.012,7.175,7.175,0,0,0-.928,2.8c-.1.866.117,1.9-.046,2.71a3.857,3.857,0,0,0-.068,1.322c.091.351-.159,1.379-.046,1.622s.136.405.611.322c.605-.1.99-1.466,1.041-2.137.04-.539,0-1.148.068-1.7a1.264,1.264,0,0,1,.5-.725c.3,0,.533.7.612.952a4.484,4.484,0,0,1,0,1.719,5.081,5.081,0,0,1-.363,1.888c-.283.547-1.359,1.095-1.675,1.82a1.441,1.441,0,0,0,.068,1.143c.836-.052,2.517-1.254,3.327-2.014a10.217,10.217,0,0,0,2.038-4.756C1666.934,1030.537,1666.263,1028.232,1666.274,1026.267Z" transform="translate(-620.9 -532.52)" fill="#dad9d7"/>
  </g>
</svg>
