<svg xmlns="http://www.w3.org/2000/svg" width="71.503" height="158.934" viewBox="0 0 71.503 158.934">
  <g id="Group_1255" data-name="Group 1255" transform="translate(0 0)">
    <g id="Ellipse_151" data-name="Ellipse 151" transform="translate(0 6.743)" fill="none" stroke="#91bb37" stroke-width="2">
      <ellipse cx="35.751" cy="58.728" rx="35.751" ry="58.728" stroke="none"/>
      <ellipse cx="35.751" cy="58.728" rx="34.751" ry="57.728" fill="none"/>
    </g>
    <path id="Path_5997" data-name="Path 5997" d="M1958.6,1026.4c0-.684.121-1.427.164-2.112a17.827,17.827,0,0,0-.167-1.846c-.117-2.762.136-5.72.074-8.578a72.474,72.474,0,0,0-.987-9.235c-.215-1.386-.733-2.792-.981-4.171-.841-4.674-.809-10.363-1.406-15.064-.936-7.377-2.14-12.07-7.63-15-1.952-1.042-7.955-1.6-8.931-3.9a6.944,6.944,0,0,1-.334-3.354,11.131,11.131,0,0,0,1.64-3.808c.788-.064.629-1.526.742-1.9s.747-2.535.546-2.834a.257.257,0,0,0-.44-.01s.11-4.306-.727-6.612a6.544,6.544,0,0,0-3.515-3.71,7.976,7.976,0,0,0-4.647-.436,6.644,6.644,0,0,0-4.246,2.8l-.014.021a9.679,9.679,0,0,0-1.319,4.72,30.976,30.976,0,0,0-.1,3.183c0,.013,0,.026,0,.04a.257.257,0,0,0-.44.01c-.2.3.43,2.464.545,2.834s-.045,1.836.743,1.9a11.129,11.129,0,0,0,1.639,3.808,6.963,6.963,0,0,1-.333,3.354c-.977,2.3-6.979,2.857-8.932,3.9-5.489,2.929-6.693,7.623-7.63,15-.6,4.7-.565,10.39-1.405,15.064-.248,1.379-.766,2.785-.981,4.171a72.479,72.479,0,0,0-.988,9.235c-.061,2.859.19,5.817.074,8.578a17.834,17.834,0,0,0-.167,1.846c.046.686.161,1.429.164,2.112.011,1.962-.364,4.267-.1,6.165a10.03,10.03,0,0,0,2.113,4.757c.841.76,2.584,1.962,3.452,2.014a1.4,1.4,0,0,0,.07-1.143c-.328-.726-1.444-1.274-1.737-1.821a4.919,4.919,0,0,1-.377-1.888,4.327,4.327,0,0,1,0-1.719c.081-.252.32-.953.635-.953a1.263,1.263,0,0,1,.516.725c.067.549.028,1.159.07,1.7.053.67.452,2.036,1.08,2.137.493.081.517-.081.634-.322s-.141-1.271-.047-1.623a3.72,3.72,0,0,0-.07-1.322c-.166-.809.06-1.845-.047-2.711a7.021,7.021,0,0,0-.963-2.8,6.467,6.467,0,0,1-.9-2.012,6.283,6.283,0,0,1,.07-2.919c.928-3.453,2.173-6.783,3.287-10.684a69.079,69.079,0,0,0,1.887-10.916c.045-.39.161-1.317.242-1.992a8.951,8.951,0,0,0,.364,2.473c.43,1.748-.891,6.239-1.5,10.182-.866,5.62-1.294,6.355-1.355,8.016-.052,1.421-.376,3.814-.506,5.774a50.419,50.419,0,0,0,1.036,15.184c.7,3.823,1.8,7.635,2.558,11.4a19.277,19.277,0,0,1,.1,4.468c-.054,1.346.13,2.719.053,4.038-.151,2.586-1.044,5.2-1.007,7.822a76.072,76.072,0,0,0,2.6,17.59c.408,1.552,1.091,3.725.717,5.066a22.049,22.049,0,0,1-1.388,3.745c-.424.867-1.576,1.442-2.308,1.966-.464.333-.875.779-1.307,1.145a5.53,5.53,0,0,0-1.027.872c-.269.426-.078.623-.027.629-.27.258-.262.726-.03.756-.145.418.076.663.316.615a.465.465,0,0,0,.073.472.4.4,0,0,0,.434.128c.182.716,1.12.559,1.583.309.07.787,1.091.958,1.659.85a4.021,4.021,0,0,0,1.879-.807c.239-.2.554-.777.693-.9.439-.393,1.086-.587,1.527-1.008a6.827,6.827,0,0,0,.8-1.457,2.36,2.36,0,0,1,1.363-.993,2.416,2.416,0,0,0,1.962-1.167,4.647,4.647,0,0,0,.164-2.619,7.851,7.851,0,0,1-.232-1.8,5.173,5.173,0,0,0,.072-1.276c-.085-.617-.05-1.085-.133-1.554-.134-.751,1.034-5.812,1.383-8.761.326-2.755.667-5.508.784-8.271a35.669,35.669,0,0,0-.164-5.208,13.562,13.562,0,0,1-.2-2.853c.292-2.6,1.69-5.128,2.031-7.764.33-2.553.735-5.223.943-7.788.238-2.941.325-5.2.628-8.606.153-1.723.135-4.264.383-8.609.082.015.174.027.228.03h.033c.061,0,.176-.016.26-.03.248,4.346.231,6.886.383,8.609.3,3.407.39,5.665.628,8.606.208,2.565.613,5.235.943,7.788.341,2.636,1.739,5.165,2.031,7.764a13.577,13.577,0,0,1-.2,2.852,35.705,35.705,0,0,0-.164,5.208c.116,2.762.458,5.515.785,8.271.349,2.948,1.515,8.009,1.383,8.761-.082.469-.047.936-.132,1.554a5.162,5.162,0,0,0,.072,1.276,7.89,7.89,0,0,1-.232,1.8,4.656,4.656,0,0,0,.164,2.619,2.416,2.416,0,0,0,1.962,1.167,2.36,2.36,0,0,1,1.363.993,6.837,6.837,0,0,0,.8,1.457c.441.421,1.088.615,1.527,1.008.139.125.454.7.693.9a4.021,4.021,0,0,0,1.879.807c.568.108,1.59-.065,1.659-.85.463.251,1.4.407,1.583-.309a.4.4,0,0,0,.433-.128.466.466,0,0,0,.073-.471c.242.049.461-.2.316-.615.231-.03.239-.5-.03-.756.052-.007.242-.2-.026-.629a5.555,5.555,0,0,0-1.027-.872c-.432-.366-.844-.812-1.307-1.145-.727-.524-1.885-1.1-2.308-1.966a22.026,22.026,0,0,1-1.389-3.745c-.377-1.341.309-3.513.717-5.066a76.06,76.06,0,0,0,2.6-17.59c.036-2.626-.855-5.237-1.007-7.822-.078-1.319.107-2.692.053-4.038a19.237,19.237,0,0,1,.1-4.468c.762-3.77,1.858-7.582,2.558-11.4a50.406,50.406,0,0,0,1.036-15.184c-.13-1.961-.455-4.353-.506-5.774-.061-1.661-.488-2.4-1.355-8.016-.606-3.942-1.929-8.434-1.5-10.182a8.923,8.923,0,0,0,.364-2.473c.081.675.2,1.6.242,1.992a69.05,69.05,0,0,0,1.887,10.916c1.114,3.9,2.359,7.231,3.287,10.684a6.281,6.281,0,0,1,.07,2.92,6.468,6.468,0,0,1-.9,2.012,7.009,7.009,0,0,0-.969,2.8c-.1.866.121,1.9-.048,2.711a3.727,3.727,0,0,0-.071,1.322c.094.351-.164,1.379-.047,1.623s.141.405.634.322c.628-.1,1.027-1.466,1.079-2.137.042-.539,0-1.149.071-1.7a1.26,1.26,0,0,1,.516-.725c.314,0,.553.7.635.953a4.337,4.337,0,0,1,0,1.719,4.923,4.923,0,0,1-.377,1.888c-.293.547-1.409,1.095-1.738,1.82a1.4,1.4,0,0,0,.071,1.143c.867-.052,2.611-1.254,3.451-2.014a10.038,10.038,0,0,0,2.114-4.757A48.732,48.732,0,0,0,1958.6,1026.4Z" transform="translate(-1897.807 -943.668)" fill="#dad9d7"/>
  </g>
</svg>
