<svg id="Group_1252" data-name="Group 1252" xmlns="http://www.w3.org/2000/svg" width="74.748" height="157.928" viewBox="0 0 74.748 157.928">
  <g id="Rectangle_792" data-name="Rectangle 792" transform="translate(0 5.061)" fill="none" stroke="#91bb37" stroke-width="2">
    <rect width="74.748" height="99.871" rx="4" stroke="none"/>
    <rect x="1" y="1" width="72.748" height="97.871" rx="3" fill="none"/>
  </g>
  <path id="Path_5994" data-name="Path 5994" d="M1059.686,1030.693c.109.65.305,3.475.408,4.323.213,1.761.642,3.495.922,5.25.4,2.523,1.083,5.032,1.317,7.577s.084,5.165.455,7.7c.382,2.62,1.95,5.133,2.278,7.716a12.408,12.408,0,0,1-.408,2.835,31.5,31.5,0,0,0-.183,5.176c.13,2.745,1.108,5.506,1.646,8.219a31.835,31.835,0,0,1,.878,6.417,12.514,12.514,0,0,1-.166,2.289c-.093.465-.417.93-.513,1.544a4.552,4.552,0,0,0,.08,1.268,7.291,7.291,0,0,1-.408,1.786,4.113,4.113,0,0,0,.039,2.6,2.782,2.782,0,0,0,2.2,1.159,2.652,2.652,0,0,1,1.528.987c.3.42.445,1.067.894,1.448.495.418,1.219.611,1.712,1,.156.124.509.7.777.9a4.815,4.815,0,0,0,2.106.8c.636.107,1.782-.064,1.86-.844.52.25,1.574.4,1.776-.307a.487.487,0,0,0,.486-.128.421.421,0,0,0,.081-.469c.272.049.517-.2.355-.611.259-.03.268-.493-.034-.752.058-.006.272-.2-.03-.625a6.108,6.108,0,0,0-1.152-.867c-.484-.363-.946-.807-1.465-1.137-.815-.521-2.113-1.092-2.588-1.954-.706-1.284-2.129-2.537-2.5-3.722-.423-1.332.408-3.469.767-5.035,1.631-7.09,2.569-11.757,2.658-17.481.041-2.61-1.324-5.2-1.495-7.774-.086-1.31.12-2.675.06-4.013a17,17,0,0,1,.19-4.44c.854-3.747,2.231-7.416,2.734-11.257.754-5.762.414-9.468-.22-15.085-.722-6.4-1.932-8.985-2.781-13.4-.42-2.184-.936-5.419-1.523-8.634a17.853,17.853,0,0,1-.376-4.557c.724-2.611,3.308-6.755,3.7-12.433-.025-.168-.671-.808-.694-.929.048.054-.368,2.028-.364,2.255.1.95.592,3.59.665,4.353.2,2.168.355,8.2.452,8.96.464,3.569.869,7.256,1.5,10.849s2.316,7.186,3.357,10.618a5.56,5.56,0,0,1,.079,2.9,7.3,7.3,0,0,1-1.369,2,6.459,6.459,0,0,0-1.079,2.782c-.118.861.136,1.89-.053,2.695a3.289,3.289,0,0,0-.079,1.313c.105.349-.184,1.371-.053,1.613s.158.4.711.32c.7-.1,1.151-1.457,1.211-2.124.047-.536,0-1.141.079-1.687a1.272,1.272,0,0,1,.579-.72c.353,0,.62.7.711.946a3.82,3.82,0,0,1,0,1.709,4.407,4.407,0,0,1-.423,1.876c-.328.543-1.58,1.088-1.948,1.809a1.247,1.247,0,0,0,.079,1.136,10,10,0,0,0,3.869-2,9.474,9.474,0,0,0,2.37-4.728c.3-1.886-.487-4.177-.476-6.127,0-.679.136-1.418.185-2.1a15.663,15.663,0,0,0-.187-1.835c-.131-2.745.262-5.684.192-8.526-.073-3.021.136-6.248-.378-9.178-.24-1.378-.822-2.775-1.1-4.145-.9-4.432.136-5.67-.085-11.9-.05-1.383-.725-4.054-.556-5.554a14.771,14.771,0,0,0-1.043-6.124,9.269,9.269,0,0,0-2.912-3.7c-1.534-1.26-3.182-1.175-5.052-1.736-1.712-.512-3.284-2.1-4.96-2.728-2.849-1.075-3.844-2.157-4.19-3.041a5.758,5.758,0,0,1-.374-2.99,9.216,9.216,0,0,0,1.838-3.442c.883-.064.705-1.516.833-1.886s.837-2.519.611-2.817a.308.308,0,0,0-.493-.009s.488-3.937-.449-6.228a7.435,7.435,0,0,0-7.077-4.25h-.226a7.435,7.435,0,0,0-7.077,4.25c-.937,2.291-.449,6.228-.449,6.228a.308.308,0,0,0-.493.009c-.229.3.482,2.449.611,2.817s-.05,1.825.833,1.886a9.213,9.213,0,0,0,1.838,3.442,5.778,5.778,0,0,1-.374,2.99c-.346.883-1.34,1.966-4.19,3.041-1.674.631-3.246,2.216-4.96,2.728-1.869.56-3.517.476-5.052,1.736a9.268,9.268,0,0,0-2.912,3.7,14.766,14.766,0,0,0-1.042,6.124c.169,1.5-.507,4.17-.556,5.554-.222,6.234.815,7.472-.085,11.9-.278,1.371-.859,2.768-1.1,4.145-.511,2.93-.3,6.158-.378,9.178-.068,2.841.323,5.781.192,8.526a15.693,15.693,0,0,0-.187,1.835c.052.681.18,1.42.185,2.1.012,1.95-.77,4.241-.476,6.127a9.471,9.471,0,0,0,2.37,4.728,10,10,0,0,0,3.869,2,1.246,1.246,0,0,0,.079-1.136c-.368-.721-1.619-1.266-1.948-1.809a4.406,4.406,0,0,1-.423-1.876,3.819,3.819,0,0,1,0-1.709c.091-.25.359-.946.712-.946a1.271,1.271,0,0,1,.579.72c.075.546.032,1.152.079,1.687.059.667.506,2.024,1.211,2.124.552.08.579-.081.711-.32s-.158-1.264-.053-1.613a3.28,3.28,0,0,0-.079-1.313c-.186-.8.068-1.834-.053-2.695a6.464,6.464,0,0,0-1.079-2.782,7.3,7.3,0,0,1-1.369-2,5.561,5.561,0,0,1,.079-2.9c1.04-3.432,2.729-7.02,3.357-10.618s1.031-7.28,1.495-10.849c.1-.755.247-6.791.453-8.96.072-.76.57-3.4.665-4.353,0-.228-.412-2.2-.364-2.255-.024.12-.669.761-.694.929.395,5.678,2.979,9.822,3.7,12.433a17.84,17.84,0,0,1-.376,4.557c-.586,3.215-1.1,6.45-1.523,8.634-.848,4.417-2.059,7-2.781,13.4-.634,5.617-.974,9.325-.219,15.085.5,3.841,1.88,7.51,2.734,11.257a17,17,0,0,1,.19,4.441c-.061,1.337.146,2.7.06,4.013-.17,2.57-1.535,5.164-1.495,7.774.089,5.724,1.028,10.392,2.658,17.481.36,1.565,1.189,3.7.767,5.035-.376,1.185-1.8,2.438-2.5,3.722-.476.862-1.767,1.433-2.588,1.954-.52.33-.981.774-1.465,1.137a6.1,6.1,0,0,0-1.152.867c-.3.423-.088.619-.03.625-.3.256-.293.722-.034.752-.162.415.086.659.355.611a.422.422,0,0,0,.081.469.487.487,0,0,0,.486.128c.2.711,1.256.556,1.775.307.078.782,1.223.953,1.861.844a4.816,4.816,0,0,0,2.106-.8c.268-.2.62-.772.777-.9.492-.391,1.217-.584,1.712-1,.448-.381.593-1.027.893-1.448a2.653,2.653,0,0,1,1.528-.987,2.783,2.783,0,0,0,2.2-1.159,4.114,4.114,0,0,0,.039-2.6,7.3,7.3,0,0,1-.408-1.785,4.551,4.551,0,0,0,.08-1.268c-.1-.614-.421-1.079-.513-1.544a12.514,12.514,0,0,1-.166-2.289,31.827,31.827,0,0,1,.878-6.417c.538-2.713,1.516-5.474,1.646-8.219a31.517,31.517,0,0,0-.184-5.176,12.166,12.166,0,0,1-.408-2.835c.328-2.584,1.9-5.1,2.278-7.716.37-2.537.221-5.152.455-7.7s.914-5.054,1.317-7.577c.28-1.752.708-3.487.922-5.25.1-.848.3-3.674.408-4.323A.858.858,0,0,0,1059.686,1030.693Z" transform="translate(-1022.828 -943.795)" fill="#dad9d7"/>
</svg>
