<svg xmlns="http://www.w3.org/2000/svg" width="58.165" height="158.934" viewBox="0 0 58.165 158.934">
  <g id="Group_1253" data-name="Group 1253" transform="translate(0.555 0)">
    <g id="Group_1199" data-name="Group 1199" transform="translate(0 5.71)">
      <g id="Polygon_11" data-name="Polygon 11" transform="translate(0 51.611)">
        <path id="Path_83475" data-name="Path 83475" d="M29.567,10.7a5.643,5.643,0,0,1,9.5,0L62.109,48.645a4.9,4.9,0,0,1-.016,5.146,5.541,5.541,0,0,1-4.733,2.568H11.269a5.542,5.542,0,0,1-4.735-2.567,4.9,4.9,0,0,1-.016-5.147Z" transform="translate(-5.787 -8.106)" fill="none" stroke="#91bb37" stroke-width="1"/>
        <path id="Path_83476" data-name="Path 83476" d="M34.311,9.395A4.109,4.109,0,0,0,30.75,11.34L7.7,49.284a3.637,3.637,0,0,0,.012,3.859,4.114,4.114,0,0,0,3.55,1.926h46.1a4.114,4.114,0,0,0,3.549-1.926,3.637,3.637,0,0,0,.012-3.859L37.873,11.34a4.109,4.109,0,0,0-3.561-1.946m0-1.289A5.49,5.49,0,0,1,39.06,10.7L62.108,48.644c2.087,3.436-.546,7.714-4.748,7.714h-46.1c-4.2,0-6.835-4.278-4.748-7.714L29.563,10.7A5.49,5.49,0,0,1,34.311,8.106Z" transform="translate(-5.784 -8.106)" fill="#91bb37" stroke="#91bb37" stroke-width="1"/>
      </g>
      <g id="Polygon_12" data-name="Polygon 12" transform="translate(57.055 48.252) rotate(180)">
        <path id="Path_83477" data-name="Path 83477" d="M23.772,2.594a5.643,5.643,0,0,1,9.5,0L56.314,40.538a4.9,4.9,0,0,1-.016,5.146,5.541,5.541,0,0,1-4.733,2.568H5.474A5.542,5.542,0,0,1,.739,45.685a4.9,4.9,0,0,1-.016-5.147Z" transform="translate(0.008 0)" fill="none" stroke="#91bb37" stroke-width="1"/>
        <path id="Path_83478" data-name="Path 83478" d="M28.527,1.289a4.109,4.109,0,0,0-3.561,1.946L1.918,41.178a3.637,3.637,0,0,0,.012,3.859,4.114,4.114,0,0,0,3.55,1.926h46.1a4.114,4.114,0,0,0,3.549-1.926,3.637,3.637,0,0,0,.012-3.859L32.089,3.234a4.109,4.109,0,0,0-3.561-1.946m0-1.289a5.49,5.49,0,0,1,4.748,2.594L56.324,40.538c2.087,3.436-.546,7.714-4.748,7.714H5.479c-4.2,0-6.835-4.278-4.748-7.714L23.779,2.594A5.49,5.49,0,0,1,28.527,0Z" transform="translate(0 0)" fill="#91bb37" stroke="#91bb37" stroke-width="1"/>
      </g>
    </g>
    <path id="Path_5996" data-name="Path 5996" d="M1380.9,1026.508c0-.684.137-1.427.185-2.113a15.788,15.788,0,0,0-.187-1.847c-.132-2.763.264-5.72.194-8.58-.074-3.04.136-6.287-.38-9.236-.242-1.386-.827-2.793-1.106-4.172a69.629,69.629,0,0,1-.958-11.186c-.159-4.143.213-8.451-1.139-12.453a10.085,10.085,0,0,0-3-4.6c-2.181-1.808-5.709-2.805-8.431-3.672-1.373-.437-4.513-.91-5.06-2.058a7.535,7.535,0,0,1-.376-3.7,10.647,10.647,0,0,0,1.887-3.809c.889-.064.71-1.526.838-1.9s.843-2.535.615-2.835a.31.31,0,0,0-.5-.009s.491-3.962-.452-6.268a7.482,7.482,0,0,0-7.122-4.277h-.227a7.482,7.482,0,0,0-7.122,4.277c-.943,2.306-.452,6.268-.452,6.268a.31.31,0,0,0-.5.009c-.231.3.485,2.465.615,2.835s-.051,1.837.838,1.9a10.65,10.65,0,0,0,1.887,3.809,7.56,7.56,0,0,1-.376,3.7c-.547,1.148-3.687,1.621-5.061,2.058-1.338.425-2.534,1.089-3.873,1.489-3.015.9-5.744,2.519-7.107,5.362-1.6,3.337-1.4,7.141-1.488,10.715-.114,4.743-.107,9.671-1.056,14.345-.28,1.379-.865,2.785-1.107,4.172-.514,2.949-.306,6.2-.38,9.236-.068,2.859.325,5.818.193,8.58a15.78,15.78,0,0,0-.188,1.846c.052.686.181,1.429.185,2.113.012,1.962-.775,4.268-.479,6.166a9.533,9.533,0,0,0,2.385,4.758,10.07,10.07,0,0,0,3.894,2.015,1.253,1.253,0,0,0,.08-1.144c-.371-.726-1.629-1.274-1.96-1.821a4.44,4.44,0,0,1-.426-1.888,3.842,3.842,0,0,1,0-1.719c.092-.252.361-.952.715-.952a1.278,1.278,0,0,1,.583.725c.076.549.032,1.16.079,1.7.06.671.51,2.036,1.219,2.138.556.081.583-.081.715-.322s-.159-1.272-.053-1.623a3.306,3.306,0,0,0-.08-1.321c-.187-.809.068-1.845-.053-2.712a6.5,6.5,0,0,0-1.086-2.8,7.343,7.343,0,0,1-1.377-2.013,5.6,5.6,0,0,1,.079-2.92c1.047-3.454,2.819-7.064,3.451-10.686s1.185-7.326,1.652-10.918c.176-1.363.178-6.009.464-7.911a.851.851,0,0,1,.074-.439c-.025.121-.049.27-.074.439a38.25,38.25,0,0,0,1.058,8.131c.486,1.749-1.328,6.365-1.983,10.314a103.3,103.3,0,0,0-1.258,28.971c.37,3.88,1.806,7.775,2.667,11.546a17.1,17.1,0,0,1,.118,4.469c-.061,1.346.147,2.719.06,4.039-.172,2.586-1.178,5.2-1.137,7.823.09,5.76,1.686,11.815,2.565,17.593.243,1.6,1.087,3.726.661,5.067-.378,1.193-1.81,2.453-2.521,3.746-.479.868-1.778,1.443-2.6,1.966-.523.332-.988.779-1.475,1.145a6.128,6.128,0,0,0-1.159.872c-.3.426-.088.623-.03.629-.3.258-.3.726-.034.756-.164.417.086.664.357.615a.424.424,0,0,0,.081.472.49.49,0,0,0,.489.129c.205.715,1.264.559,1.787.309.079.787,1.231.958,1.872.85a4.839,4.839,0,0,0,2.12-.807c.27-.2.625-.777.781-.9.5-.394,1.225-.588,1.723-1.008.451-.383.6-1.034.9-1.457a2.672,2.672,0,0,1,1.538-.994,2.8,2.8,0,0,0,2.214-1.167,4.141,4.141,0,0,0,.039-2.62,7.357,7.357,0,0,1-.41-1.8,4.573,4.573,0,0,0,.081-1.276c-.1-.618-.423-1.086-.516-1.554a12.624,12.624,0,0,1-.167-2.3c-.027-2.137.836-4.364,1.25-6.458a56.882,56.882,0,0,0,1.289-8.272,31.685,31.685,0,0,0-.185-5.209,12.078,12.078,0,0,1-.229-2.853c.33-2.6,1.907-5.129,2.292-7.765.373-2.553.038-5.185.273-7.751.269-2.942.911-5.918,1.4-8.856.285-1.711.432-3.426.84-5.116.137-.574,0-2.93.425-3.286h0v.031a.642.642,0,0,1,.257,0v-.031h0c.42.354.286,2.711.425,3.286.407,1.689.554,3.405.839,5.116.489,2.938,1.13,5.914,1.4,8.856.235,2.565-.1,5.2.274,7.751.385,2.636,1.963,5.166,2.292,7.765a12.064,12.064,0,0,1-.229,2.853,31.714,31.714,0,0,0-.184,5.209,56.948,56.948,0,0,0,1.289,8.272c.415,2.094,1.277,4.32,1.251,6.458a12.645,12.645,0,0,1-.167,2.3c-.092.468-.42.936-.516,1.554a4.571,4.571,0,0,0,.081,1.276,7.353,7.353,0,0,1-.41,1.8,4.14,4.14,0,0,0,.039,2.62,2.8,2.8,0,0,0,2.214,1.167,2.671,2.671,0,0,1,1.538.993c.3.423.448,1.074.9,1.457.5.421,1.228.615,1.722,1.008.157.125.512.7.782.9a4.845,4.845,0,0,0,2.12.807c.64.108,1.794-.064,1.873-.85.523.251,1.584.407,1.787-.309a.49.49,0,0,0,.489-.128.424.424,0,0,0,.082-.472c.273.049.52-.2.357-.615.26-.03.27-.5-.034-.756.059-.006.273-.2-.03-.629a6.122,6.122,0,0,0-1.159-.872c-.488-.366-.952-.813-1.475-1.145-.82-.524-2.126-1.1-2.6-1.966-.711-1.292-2.143-2.553-2.521-3.746-.426-1.341.418-3.471.661-5.067.88-5.778,2.476-11.832,2.565-17.593.041-2.627-.965-5.237-1.137-7.823-.087-1.319.121-2.693.06-4.038a17.1,17.1,0,0,1,.117-4.469c.86-3.771,2.3-7.667,2.667-11.546a103.3,103.3,0,0,0-1.258-28.971c-.655-3.948-2.469-8.564-1.983-10.314a38.217,38.217,0,0,0,1.058-8.131c-.025-.169-.05-.318-.074-.439a.848.848,0,0,1,.074.439c.285,1.9.288,6.549.464,7.911.467,3.592,1.021,7.3,1.652,10.918s2.4,7.232,3.451,10.686a5.6,5.6,0,0,1,.08,2.92,7.352,7.352,0,0,1-1.378,2.013,6.5,6.5,0,0,0-1.086,2.8c-.118.867.137,1.9-.053,2.712a3.306,3.306,0,0,0-.079,1.321c.106.351-.186,1.379-.053,1.623s.159.405.715.322c.708-.1,1.158-1.466,1.218-2.138.048-.539,0-1.149.08-1.7a1.279,1.279,0,0,1,.583-.725c.354,0,.624.7.716.952a3.85,3.85,0,0,1,0,1.719,4.44,4.44,0,0,1-.426,1.888c-.331.547-1.59,1.1-1.961,1.821a1.253,1.253,0,0,0,.08,1.144,10.067,10.067,0,0,0,3.894-2.015,9.537,9.537,0,0,0,2.385-4.758C1381.672,1030.779,1380.885,1028.473,1380.9,1026.508Z" transform="translate(-1326.577 -943.787)" fill="#dad9d7"/>
  </g>
</svg>
