<svg xmlns="http://www.w3.org/2000/svg" width="38" height="37.1" viewBox="0 0 38 37.1">
  <path id="sms_FILL0_wght300_GRAD0_opsz48" d="M15.5,21.65a1.655,1.655,0,0,0,1.25-.525,1.72,1.72,0,0,0,.5-1.225,1.781,1.781,0,0,0-.5-1.275A1.655,1.655,0,0,0,15.5,18.1a1.793,1.793,0,0,0-1.8,1.8,1.679,1.679,0,0,0,.525,1.225A1.736,1.736,0,0,0,15.5,21.65Zm8.6,0a1.736,1.736,0,0,0,1.275-.525A1.679,1.679,0,0,0,25.9,19.9a1.793,1.793,0,0,0-1.8-1.8,1.679,1.679,0,0,0-1.225.525A1.736,1.736,0,0,0,22.35,19.9a1.794,1.794,0,0,0,1.75,1.75Zm8.4,0a1.794,1.794,0,0,0,1.75-1.75,1.736,1.736,0,0,0-.525-1.275A1.679,1.679,0,0,0,32.5,18.1a1.793,1.793,0,0,0-1.8,1.8,1.679,1.679,0,0,0,.525,1.225A1.736,1.736,0,0,0,32.5,21.65ZM5,42.1V5H43V35H12.1Zm2.25-5.5,3.85-3.85H40.75V7.25H7.25Zm0,0v0Z" transform="translate(-5 -5)"/>
</svg>
