<svg xmlns="http://www.w3.org/2000/svg" width="23.824" height="27.146" viewBox="0 0 23.824 27.146">
  <path id="calendar_month_FILL0_wght200_GRAD0_opsz48" d="M162.062,233.915A2.054,2.054,0,0,1,160,231.853V211.809a2.054,2.054,0,0,1,2.062-2.062h3.078v-2.978h1.332v2.978h11v-2.978h1.246v2.978h3.05a2.054,2.054,0,0,1,2.062,2.062v20.045a2.054,2.054,0,0,1-2.062,2.062Zm0-1.145h19.7a.985.985,0,0,0,.916-.916V218.28H161.145v13.573a.985.985,0,0,0,.916.916Zm-.916-15.635h21.534v-5.326a.985.985,0,0,0-.916-.916h-19.7a.985.985,0,0,0-.916.916Zm0,0v0Zm10.767,6.586a1.169,1.169,0,1,1,.8-.342A1.1,1.1,0,0,1,171.912,223.721Zm-5.956,0a1.169,1.169,0,1,1,.8-.342A1.1,1.1,0,0,1,165.956,223.721Zm11.912,0a1.169,1.169,0,1,1,.8-.342A1.1,1.1,0,0,1,177.868,223.721Zm-5.956,5.727a1.169,1.169,0,1,1,.8-.342A1.1,1.1,0,0,1,171.912,229.448Zm-5.956,0a1.169,1.169,0,1,1,.8-.342A1.1,1.1,0,0,1,165.956,229.448Zm11.912,0a1.169,1.169,0,1,1,.8-.342A1.1,1.1,0,0,1,177.868,229.448Z" transform="translate(-160 -206.769)" fill="#114520"/>
</svg>
