<svg xmlns="http://www.w3.org/2000/svg" width="36" height="36" viewBox="0 0 36 36">
  <g id="Group_2876" data-name="Group 2876" transform="translate(-249 -731)">
    <g id="Group_2878" data-name="Group 2878">
      <g id="Rectangle_1853" data-name="Rectangle 1853" transform="translate(249 731)" fill="#fff" stroke="#eee" stroke-width="1">
        <rect width="36" height="36" rx="18" stroke="none"/>
        <rect x="0.5" y="0.5" width="35" height="35" rx="17.5" fill="none"/>
      </g>
      <g id="Icons" transform="translate(256.016 739.847)">
        <g id="Color-">
          <path id="Twitter" d="M321.969,166.167a8.8,8.8,0,0,1-2.588.727,4.612,4.612,0,0,0,1.982-2.556,8.887,8.887,0,0,1-2.864,1.12A4.444,4.444,0,0,0,315.21,164a4.565,4.565,0,0,0-4.505,4.622,4.713,4.713,0,0,0,.116,1.052,12.689,12.689,0,0,1-9.291-4.83,4.707,4.707,0,0,0-.61,2.326,4.652,4.652,0,0,0,2.005,3.847,4.426,4.426,0,0,1-2.043-.577v.057a4.6,4.6,0,0,0,3.617,4.532,4.3,4.3,0,0,1-1.188.163,4.394,4.394,0,0,1-.849-.082,4.524,4.524,0,0,0,4.21,3.208,8.9,8.9,0,0,1-5.6,1.98,9.061,9.061,0,0,1-1.076-.064,12.551,12.551,0,0,0,6.909,2.075c8.291,0,12.824-7.042,12.824-13.149,0-.2,0-.4-.012-.6a9.248,9.248,0,0,0,2.248-2.392" transform="translate(-300 -164)" fill="#00aaec" fill-rule="evenodd"/>
        </g>
      </g>
    </g>
  </g>
</svg>
