<svg xmlns="http://www.w3.org/2000/svg" width="18" height="17" viewBox="0 0 18 17">
  <path id="account_balance_wallet_FILL0_wght300_GRAD0_opsz24" d="M16,13.5a1.454,1.454,0,1,0-1.075-.425A1.457,1.457,0,0,0,16,13.5ZM5,18v0Zm.3,2.5a1.793,1.793,0,0,1-1.8-1.8V5.3A1.793,1.793,0,0,1,5.3,3.5H18.7a1.793,1.793,0,0,1,1.8,1.8V8.025H19V5.3a.3.3,0,0,0-.3-.3H5.3a.3.3,0,0,0-.3.3V18.7a.3.3,0,0,0,.3.3H18.7a.3.3,0,0,0,.3-.3V15.975h1.5V18.7a1.793,1.793,0,0,1-1.8,1.8Zm8-4a1.793,1.793,0,0,1-1.8-1.8V9.3a1.793,1.793,0,0,1,1.8-1.8h6.4a1.793,1.793,0,0,1,1.8,1.8v5.4a1.793,1.793,0,0,1-1.8,1.8ZM19.7,15a.3.3,0,0,0,.3-.3V9.3a.3.3,0,0,0-.3-.3H13.3a.3.3,0,0,0-.3.3v5.4a.3.3,0,0,0,.3.3Z" transform="translate(-3.5 -3.5)"/>
</svg>
