<svg xmlns="http://www.w3.org/2000/svg" width="38.436" height="45.554" viewBox="0 0 38.436 45.554">
  <g id="weight-scale_1_" data-name="weight-scale (1)" transform="translate(-5)">
    <path id="Path_84580" data-name="Path 84580" d="M39.877,0H8.559A3.563,3.563,0,0,0,5,3.559V41.995a3.563,3.563,0,0,0,3.559,3.559H39.877a3.563,3.563,0,0,0,3.559-3.559V3.559A3.563,3.563,0,0,0,39.877,0Zm2.135,41.995a2.138,2.138,0,0,1-2.135,2.135H8.559a2.138,2.138,0,0,1-2.135-2.135V3.559A2.138,2.138,0,0,1,8.559,1.424H39.877a2.138,2.138,0,0,1,2.135,2.135Z" transform="translate(0)" fill="#9ec648"/>
    <path id="Path_84581" data-name="Path 84581" d="M26.524,6A13.539,13.539,0,0,0,13,19.524a.712.712,0,0,0,.712.712H39.336a.712.712,0,0,0,.712-.712A13.539,13.539,0,0,0,26.524,6Zm-2.986,8.751c.408.3.82.609,1.2.9a4.32,4.32,0,0,0-.563.31C23.968,15.568,23.75,15.156,23.538,14.751Zm.228,4.061a2.847,2.847,0,0,1,2.627-2.124c.019,0,.036,0,.055,0s.05-.006.075-.006a2.854,2.854,0,0,1,2.757,2.135Zm11.974,0A9.262,9.262,0,0,0,28.535,10.5l.519-.346a.712.712,0,1,0-.79-1.184L26.128,10.39a.712.712,0,0,0-.108,1.1l2.135,2.135a.712.712,0,0,0,1.007-1.006l-.656-.656a7.838,7.838,0,0,1,5.811,6.854H30.73a4.273,4.273,0,0,0-4.158-3.557c-1.448-1.132-4.479-3.328-4.614-3.426a.712.712,0,0,0-1.055.894c.014.027,1.236,2.475,2.2,4.248a4.233,4.233,0,0,0-.79,1.841H14.444a12.1,12.1,0,0,1,24.159,0Z" transform="translate(-2.306 -1.729)" fill="#9ec648"/>
    <path id="Path_84582" data-name="Path 84582" d="M39.406,28A6.414,6.414,0,0,0,33,34.406a5.873,5.873,0,0,0,.732,3.009c.522,1.058,1.115,2.256.694,6.891A4.382,4.382,0,0,0,35.6,47.681a5.161,5.161,0,0,0,3.807,1.673c6.406,0,6.406-9,6.406-14.947A6.414,6.414,0,0,0,39.406,28Zm0,19.93A3.789,3.789,0,0,1,36.65,46.72a2.973,2.973,0,0,1-.806-2.286c.458-5.034-.23-6.424-.836-7.651a4.5,4.5,0,0,1-.585-2.378,4.982,4.982,0,0,1,9.965,0C44.388,39.791,44.388,47.93,39.406,47.93Z" transform="translate(-8.07 -8.07)" fill="#9ec648"/>
    <path id="Path_84583" data-name="Path 84583" d="M19.406,28A6.414,6.414,0,0,0,13,34.406c0,5.952,0,14.947,6.406,14.947a5.164,5.164,0,0,0,3.807-1.673,4.378,4.378,0,0,0,1.172-3.374c-.421-4.634.172-5.833.694-6.891a5.873,5.873,0,0,0,.732-3.009A6.414,6.414,0,0,0,19.406,28Zm4.4,8.785c-.606,1.226-1.293,2.616-.836,7.651a2.973,2.973,0,0,1-.806,2.285,3.789,3.789,0,0,1-2.756,1.209c-4.982,0-4.982-8.138-4.982-13.524a4.982,4.982,0,1,1,9.965,0A4.5,4.5,0,0,1,23.8,36.785Z" transform="translate(-2.306 -8.07)" fill="#9ec648"/>
  </g>
</svg>
