<svg xmlns="http://www.w3.org/2000/svg" width="36" height="36" viewBox="0 0 36 36">
  <g id="Group_2587" data-name="Group 2587" transform="translate(0 -0.931)">
    <rect id="Rectangle_1703" data-name="Rectangle 1703" width="36" height="36" rx="10" transform="translate(0 0.931)" fill="#25d366"/>
    <g id="WA" transform="translate(7 7.931)">
      <g id="Group_2578" data-name="Group 2578">
        <path id="Path_4021" data-name="Path 4021" d="M4.393,25.607l4.714-1.3A11.108,11.108,0,0,0,15,26,11,11,0,1,0,4,15a11.108,11.108,0,0,0,1.689,5.893Z" transform="translate(-4 -4)" fill="#25d366" stroke="#fff" stroke-miterlimit="10" stroke-width="2"/>
        <path id="Path_4022" data-name="Path 4022" d="M28.952,27.639a3.039,3.039,0,0,1-2.121,1.768,6.864,6.864,0,0,1-3.85-.825,9.52,9.52,0,0,1-4.125-3.654,5.688,5.688,0,0,1-.864-2.436,2.985,2.985,0,0,1,1.179-2.475.664.664,0,0,1,.393-.118h.589a.591.591,0,0,1,.55.393l.9,2.2a.686.686,0,0,1-.118.668l-.589.629a.592.592,0,0,0-.079.707,1.288,1.288,0,0,0,.236.314,6.814,6.814,0,0,0,2.711,2.121,2.71,2.71,0,0,0,.393.157.616.616,0,0,0,.668-.236l.471-.707a.584.584,0,0,1,.589-.275l2.357.354a.689.689,0,0,1,.511.471l.157.589A.369.369,0,0,1,28.952,27.639Z" transform="translate(-12.491 -13.654)" fill="#fff"/>
      </g>
    </g>
  </g>
</svg>
